<svg width="1440" height="795" viewBox="0 0 1440 795" fill="none" xmlns="http://www.w3.org/2000/svg">
<g opacity="0.2">
<path d="M-522.219 240.779V199.067H-628V115.642L-530.017 3.39125H-440.85V127.85H-403.555V199.067H-440.85V240.779H-522.219ZM-528.322 146.163C-519.733 146.163 -512.5 143.111 -506.624 137.007C-500.521 130.902 -497.469 123.668 -497.469 115.303C-497.469 106.712 -500.521 99.4768 -506.624 93.5986C-512.5 87.4944 -519.733 84.4423 -528.322 84.4423C-536.685 84.4423 -543.918 87.4944 -550.021 93.5986C-556.123 99.4768 -559.175 106.712 -559.175 115.303C-559.175 123.668 -556.123 130.902 -550.021 137.007C-543.918 143.111 -536.685 146.163 -528.322 146.163Z" fill="#251B4C"/>
<path d="M-298.222 244.17C-313.818 244.17 -328.171 240.44 -341.281 232.979C-354.164 225.292 -364.448 215.006 -372.133 202.119C-379.592 189.232 -383.322 175.102 -383.322 159.728V84.4423C-383.322 68.8425 -379.592 54.7122 -372.133 42.0516C-364.448 29.1648 -354.164 18.991 -341.281 11.5303C-328.171 3.84342 -313.818 0 -298.222 0C-282.627 0 -268.5 3.84342 -255.842 11.5303C-242.959 18.991 -232.788 29.1648 -225.329 42.0516C-217.644 54.7122 -213.801 68.8425 -213.801 84.4423V159.728C-213.801 175.102 -217.644 189.232 -225.329 202.119C-232.788 215.006 -242.959 225.292 -255.842 232.979C-268.5 240.44 -282.627 244.17 -298.222 244.17ZM-298.222 159.389C-287.825 159.389 -279.01 155.772 -271.777 148.537C-264.544 141.302 -260.928 132.485 -260.928 122.085C-260.928 111.459 -264.544 102.529 -271.777 95.2943C-279.01 88.0596 -287.825 84.4423 -298.222 84.4423C-308.62 84.4423 -317.548 88.0596 -325.007 95.2943C-332.239 102.529 -335.856 111.459 -335.856 122.085C-335.856 132.485 -332.239 141.302 -325.007 148.537C-317.548 155.772 -308.62 159.389 -298.222 159.389Z" fill="#251B4C"/>
<path d="M-87.8241 240.779V199.067H-193.605V115.642L-95.622 3.39125H-6.45441V127.85H30.84V199.067H-6.45441V240.779H-87.8241ZM-93.9268 146.163C-85.3378 146.163 -78.1049 143.111 -72.2283 137.007C-66.1255 130.902 -63.0742 123.668 -63.0742 115.303C-63.0742 106.712 -66.1255 99.4768 -72.2283 93.5986C-78.1049 87.4944 -85.3378 84.4423 -93.9268 84.4423C-102.29 84.4423 -109.523 87.4944 -115.625 93.5986C-121.728 99.4768 -124.78 106.712 -124.78 115.303C-124.78 123.668 -121.728 130.902 -115.625 137.007C-109.523 143.111 -102.29 146.163 -93.9268 146.163Z" fill="#251B4C"/>
<path d="M157.167 240.779V199.067H51.3867V115.642L149.369 3.39125H238.537V127.85H275.831V199.067H238.537V240.779H157.167ZM151.065 146.163C159.654 146.163 166.886 143.111 172.763 137.007C178.866 130.902 181.917 123.668 181.917 115.303C181.917 106.712 178.866 99.4768 172.763 93.5986C166.886 87.4944 159.654 84.4423 151.065 84.4423C142.702 84.4423 135.469 87.4944 129.366 93.5986C123.263 99.4768 120.212 106.712 120.212 115.303C120.212 123.668 123.263 130.902 129.366 137.007C135.469 143.111 142.702 146.163 151.065 146.163Z" fill="#251B4C"/>
<path d="M381.164 244.17C365.568 244.17 351.216 240.44 338.106 232.979C325.223 225.292 314.938 215.006 307.253 202.119C299.795 189.232 296.065 175.102 296.065 159.728V84.4423C296.065 68.8425 299.795 54.7122 307.253 42.0516C314.938 29.1648 325.223 18.991 338.106 11.5303C351.216 3.84342 365.568 0 381.164 0C396.76 0 410.887 3.84342 423.544 11.5303C436.428 18.991 446.599 29.1648 454.058 42.0516C461.743 54.7122 465.585 68.8425 465.585 84.4423V159.728C465.585 175.102 461.743 189.232 454.058 202.119C446.599 215.006 436.428 225.292 423.544 232.979C410.887 240.44 396.76 244.17 381.164 244.17ZM381.164 159.389C391.562 159.389 400.376 155.772 407.609 148.537C414.842 141.302 418.459 132.485 418.459 122.085C418.459 111.459 414.842 102.529 407.609 95.2943C400.376 88.0596 391.562 84.4423 381.164 84.4423C370.767 84.4423 361.839 88.0596 354.38 95.2943C347.147 102.529 343.531 111.459 343.531 122.085C343.531 132.485 347.147 141.302 354.38 148.537C361.839 155.772 370.767 159.389 381.164 159.389Z" fill="#251B4C"/>
<path d="M591.562 240.779V199.067H485.782V115.642L583.765 3.39125H672.932V127.85H710.227V199.067H672.932V240.779H591.562ZM585.46 146.163C594.049 146.163 601.282 143.111 607.158 137.007C613.261 130.902 616.312 123.668 616.312 115.303C616.312 106.712 613.261 99.4768 607.158 93.5986C601.282 87.4944 594.049 84.4423 585.46 84.4423C577.097 84.4423 569.864 87.4944 563.761 93.5986C557.659 99.4768 554.607 106.712 554.607 115.303C554.607 123.668 557.659 130.902 563.761 137.007C569.864 143.111 577.097 146.163 585.46 146.163Z" fill="#251B4C"/>
<path d="M836.554 240.779V199.067H730.773V115.642L828.756 3.39125H917.924V127.85H955.218V199.067H917.924V240.779H836.554ZM830.451 146.163C839.04 146.163 846.273 143.111 852.15 137.007C858.253 130.902 861.304 123.668 861.304 115.303C861.304 106.712 858.253 99.4768 852.15 93.5986C846.273 87.4944 839.04 84.4423 830.451 84.4423C822.088 84.4423 814.855 87.4944 808.753 93.5986C802.65 99.4768 799.599 106.712 799.599 115.303C799.599 123.668 802.65 130.902 808.753 137.007C814.855 143.111 822.088 146.163 830.451 146.163Z" fill="#251B4C"/>
<path d="M1060.55 244.17C1044.96 244.17 1030.6 240.44 1017.49 232.979C1004.61 225.292 994.325 215.006 986.64 202.119C979.181 189.232 975.452 175.102 975.452 159.728V84.4423C975.452 68.8425 979.181 54.7122 986.64 42.0516C994.325 29.1648 1004.61 18.991 1017.49 11.5303C1030.6 3.84342 1044.96 0 1060.55 0C1076.15 0 1090.27 3.84342 1102.93 11.5303C1115.81 18.991 1125.99 29.1648 1133.44 42.0516C1141.13 54.7122 1144.97 68.8425 1144.97 84.4423V159.728C1144.97 175.102 1141.13 189.232 1133.44 202.119C1125.99 215.006 1115.81 225.292 1102.93 232.979C1090.27 240.44 1076.15 244.17 1060.55 244.17ZM1060.55 159.389C1070.95 159.389 1079.76 155.772 1087 148.537C1094.23 141.302 1097.85 132.485 1097.85 122.085C1097.85 111.459 1094.23 102.529 1087 95.2943C1079.76 88.0596 1070.95 84.4423 1060.55 84.4423C1050.15 84.4423 1041.23 88.0596 1033.77 95.2943C1026.53 102.529 1022.92 111.459 1022.92 122.085C1022.92 132.485 1026.53 141.302 1033.77 148.537C1041.23 155.772 1050.15 159.389 1060.55 159.389Z" fill="#251B4C"/>
<path d="M1270.95 240.779V199.067H1165.17V115.642L1263.15 3.39125H1352.32V127.85H1389.61V199.067H1352.32V240.779H1270.95ZM1264.85 146.163C1273.44 146.163 1280.67 143.111 1286.55 137.007C1292.65 130.902 1295.7 123.668 1295.7 115.303C1295.7 106.712 1292.65 99.4768 1286.55 93.5986C1280.67 87.4944 1273.44 84.4423 1264.85 84.4423C1256.48 84.4423 1249.25 87.4944 1243.15 93.5986C1237.05 99.4768 1233.99 106.712 1233.99 115.303C1233.99 123.668 1237.05 130.902 1243.15 137.007C1249.25 143.111 1256.48 146.163 1264.85 146.163Z" fill="#251B4C"/>
<path d="M1515.94 240.779V199.067H1410.16V115.642L1508.14 3.39125H1597.31V127.85H1634.6V199.067H1597.31V240.779H1515.94ZM1509.84 146.163C1518.43 146.163 1525.66 143.111 1531.54 137.007C1537.64 130.902 1540.69 123.668 1540.69 115.303C1540.69 106.712 1537.64 99.4768 1531.54 93.5986C1525.66 87.4944 1518.43 84.4423 1509.84 84.4423C1501.47 84.4423 1494.24 87.4944 1488.14 93.5986C1482.04 99.4768 1478.99 106.712 1478.99 115.303C1478.99 123.668 1482.04 130.902 1488.14 137.007C1494.24 143.111 1501.47 146.163 1509.84 146.163Z" fill="#251B4C"/>
<path d="M1739.94 244.17C1724.34 244.17 1709.99 240.44 1696.88 232.979C1684 225.292 1673.71 215.006 1666.03 202.119C1658.57 189.232 1654.84 175.102 1654.84 159.728V84.4423C1654.84 68.8425 1658.57 54.7122 1666.03 42.0516C1673.71 29.1648 1684 18.991 1696.88 11.5303C1709.99 3.84342 1724.34 0 1739.94 0C1755.53 0 1769.66 3.84342 1782.32 11.5303C1795.2 18.991 1805.37 29.1648 1812.83 42.0516C1820.52 54.7122 1824.36 68.8425 1824.36 84.4423V159.728C1824.36 175.102 1820.52 189.232 1812.83 202.119C1805.37 215.006 1795.2 225.292 1782.32 232.979C1769.66 240.44 1755.53 244.17 1739.94 244.17ZM1739.94 159.389C1750.33 159.389 1759.15 155.772 1766.38 148.537C1773.62 141.302 1777.23 132.485 1777.23 122.085C1777.23 111.459 1773.62 102.529 1766.38 95.2943C1759.15 88.0596 1750.33 84.4423 1739.94 84.4423C1729.54 84.4423 1720.61 88.0596 1713.15 95.2943C1705.92 102.529 1702.3 111.459 1702.3 122.085C1702.3 132.485 1705.92 141.302 1713.15 148.537C1720.61 155.772 1729.54 159.389 1739.94 159.389Z" fill="#251B4C"/>
<path d="M1950.34 240.779V199.067H1844.56V115.642L1942.54 3.39125H2031.71V127.85H2069V199.067H2031.71V240.779H1950.34ZM1944.23 146.163C1952.82 146.163 1960.05 143.111 1965.93 137.007C1972.03 130.902 1975.09 123.668 1975.09 115.303C1975.09 106.712 1972.03 99.4768 1965.93 93.5986C1960.05 87.4944 1952.82 84.4423 1944.23 84.4423C1935.87 84.4423 1928.64 87.4944 1922.53 93.5986C1916.43 99.4768 1913.38 106.712 1913.38 115.303C1913.38 123.668 1916.43 130.902 1922.53 137.007C1928.64 143.111 1935.87 146.163 1944.23 146.163Z" fill="#251B4C"/>
<path d="M-522.219 523.424V481.711H-628V398.286L-530.017 286.036H-440.85V410.495H-403.555V481.711H-440.85V523.424H-522.219ZM-528.322 428.808C-519.733 428.808 -512.5 425.755 -506.624 419.651C-500.521 413.547 -497.469 406.312 -497.469 397.947C-497.469 389.356 -500.521 382.121 -506.624 376.243C-512.5 370.139 -519.733 367.087 -528.322 367.087C-536.685 367.087 -543.918 370.139 -550.021 376.243C-556.123 382.121 -559.175 389.356 -559.175 397.947C-559.175 406.312 -556.123 413.547 -550.021 419.651C-543.918 425.755 -536.685 428.808 -528.322 428.808Z" fill="#251B4C"/>
<path d="M-298.222 526.815C-313.818 526.815 -328.171 523.084 -341.281 515.624C-354.164 507.937 -364.448 497.65 -372.133 484.763C-379.592 471.877 -383.322 457.746 -383.322 442.373V367.087C-383.322 351.487 -379.592 337.357 -372.133 324.696C-364.448 311.809 -354.164 301.635 -341.281 294.175C-328.171 286.488 -313.818 282.644 -298.222 282.644C-282.627 282.644 -268.5 286.488 -255.842 294.175C-242.959 301.635 -232.788 311.809 -225.329 324.696C-217.644 337.357 -213.801 351.487 -213.801 367.087V442.373C-213.801 457.746 -217.644 471.877 -225.329 484.763C-232.788 497.65 -242.959 507.937 -255.842 515.624C-268.5 523.084 -282.627 526.815 -298.222 526.815ZM-298.222 442.033C-287.825 442.033 -279.01 438.416 -271.777 431.181C-264.544 423.947 -260.928 415.129 -260.928 404.73C-260.928 394.104 -264.544 385.173 -271.777 377.939C-279.01 370.704 -287.825 367.087 -298.222 367.087C-308.62 367.087 -317.548 370.704 -325.007 377.939C-332.239 385.173 -335.856 394.104 -335.856 404.73C-335.856 415.129 -332.239 423.947 -325.007 431.181C-317.548 438.416 -308.62 442.033 -298.222 442.033Z" fill="#251B4C"/>
<path d="M-87.8241 523.424V481.711H-193.605V398.286L-95.622 286.036H-6.45441V410.495H30.84V481.711H-6.45441V523.424H-87.8241ZM-93.9268 428.808C-85.3378 428.808 -78.1049 425.755 -72.2283 419.651C-66.1255 413.547 -63.0742 406.312 -63.0742 397.947C-63.0742 389.356 -66.1255 382.121 -72.2283 376.243C-78.1049 370.139 -85.3378 367.087 -93.9268 367.087C-102.29 367.087 -109.523 370.139 -115.625 376.243C-121.728 382.121 -124.78 389.356 -124.78 397.947C-124.78 406.312 -121.728 413.547 -115.625 419.651C-109.523 425.755 -102.29 428.808 -93.9268 428.808Z" fill="#251B4C"/>
<path d="M157.167 523.424V481.711H51.3867V398.286L149.369 286.036H238.537V410.495H275.831V481.711H238.537V523.424H157.167ZM151.065 428.808C159.654 428.808 166.886 425.755 172.763 419.651C178.866 413.547 181.917 406.312 181.917 397.947C181.917 389.356 178.866 382.121 172.763 376.243C166.886 370.139 159.654 367.087 151.065 367.087C142.702 367.087 135.469 370.139 129.366 376.243C123.263 382.121 120.212 389.356 120.212 397.947C120.212 406.312 123.263 413.547 129.366 419.651C135.469 425.755 142.702 428.808 151.065 428.808Z" fill="#251B4C"/>
<path d="M381.164 526.815C365.568 526.815 351.216 523.084 338.106 515.624C325.223 507.937 314.938 497.65 307.253 484.763C299.795 471.877 296.065 457.746 296.065 442.373V367.087C296.065 351.487 299.795 337.357 307.253 324.696C314.938 311.809 325.223 301.635 338.106 294.175C351.216 286.488 365.568 282.644 381.164 282.644C396.76 282.644 410.887 286.488 423.544 294.175C436.428 301.635 446.599 311.809 454.058 324.696C461.743 337.357 465.585 351.487 465.585 367.087V442.373C465.585 457.746 461.743 471.877 454.058 484.763C446.599 497.65 436.428 507.937 423.544 515.624C410.887 523.084 396.76 526.815 381.164 526.815ZM381.164 442.033C391.562 442.033 400.376 438.416 407.609 431.181C414.842 423.947 418.459 415.129 418.459 404.73C418.459 394.104 414.842 385.173 407.609 377.939C400.376 370.704 391.562 367.087 381.164 367.087C370.767 367.087 361.839 370.704 354.38 377.939C347.147 385.173 343.531 394.104 343.531 404.73C343.531 415.129 347.147 423.947 354.38 431.181C361.839 438.416 370.767 442.033 381.164 442.033Z" fill="#251B4C"/>
<path d="M591.562 523.424V481.711H485.782V398.286L583.765 286.036H672.932V410.495H710.227V481.711H672.932V523.424H591.562ZM585.46 428.808C594.049 428.808 601.282 425.755 607.158 419.651C613.261 413.547 616.312 406.312 616.312 397.947C616.312 389.356 613.261 382.121 607.158 376.243C601.282 370.139 594.049 367.087 585.46 367.087C577.097 367.087 569.864 370.139 563.761 376.243C557.659 382.121 554.607 389.356 554.607 397.947C554.607 406.312 557.659 413.547 563.761 419.651C569.864 425.755 577.097 428.808 585.46 428.808Z" fill="#251B4C"/>
<path d="M836.554 523.424V481.711H730.773V398.286L828.756 286.036H917.924V410.495H955.218V481.711H917.924V523.424H836.554ZM830.451 428.808C839.04 428.808 846.273 425.755 852.15 419.651C858.253 413.547 861.304 406.312 861.304 397.947C861.304 389.356 858.253 382.121 852.15 376.243C846.273 370.139 839.04 367.087 830.451 367.087C822.088 367.087 814.855 370.139 808.753 376.243C802.65 382.121 799.599 389.356 799.599 397.947C799.599 406.312 802.65 413.547 808.753 419.651C814.855 425.755 822.088 428.808 830.451 428.808Z" fill="#251B4C"/>
<path d="M1060.55 526.815C1044.96 526.815 1030.6 523.084 1017.49 515.624C1004.61 507.937 994.325 497.65 986.64 484.763C979.181 471.877 975.452 457.746 975.452 442.373V367.087C975.452 351.487 979.181 337.357 986.64 324.696C994.325 311.809 1004.61 301.635 1017.49 294.175C1030.6 286.488 1044.96 282.644 1060.55 282.644C1076.15 282.644 1090.27 286.488 1102.93 294.175C1115.81 301.635 1125.99 311.809 1133.44 324.696C1141.13 337.357 1144.97 351.487 1144.97 367.087V442.373C1144.97 457.746 1141.13 471.877 1133.44 484.763C1125.99 497.65 1115.81 507.937 1102.93 515.624C1090.27 523.084 1076.15 526.815 1060.55 526.815ZM1060.55 442.033C1070.95 442.033 1079.76 438.416 1087 431.181C1094.23 423.947 1097.85 415.129 1097.85 404.73C1097.85 394.104 1094.23 385.173 1087 377.939C1079.76 370.704 1070.95 367.087 1060.55 367.087C1050.15 367.087 1041.23 370.704 1033.77 377.939C1026.53 385.173 1022.92 394.104 1022.92 404.73C1022.92 415.129 1026.53 423.947 1033.77 431.181C1041.23 438.416 1050.15 442.033 1060.55 442.033Z" fill="#251B4C"/>
<path d="M1270.95 523.424V481.711H1165.17V398.286L1263.15 286.036H1352.32V410.495H1389.61V481.711H1352.32V523.424H1270.95ZM1264.85 428.808C1273.44 428.808 1280.67 425.755 1286.55 419.651C1292.65 413.547 1295.7 406.312 1295.7 397.947C1295.7 389.356 1292.65 382.121 1286.55 376.243C1280.67 370.139 1273.44 367.087 1264.85 367.087C1256.48 367.087 1249.25 370.139 1243.15 376.243C1237.05 382.121 1233.99 389.356 1233.99 397.947C1233.99 406.312 1237.05 413.547 1243.15 419.651C1249.25 425.755 1256.48 428.808 1264.85 428.808Z" fill="#251B4C"/>
<path d="M1515.94 523.424V481.711H1410.16V398.286L1508.14 286.036H1597.31V410.495H1634.6V481.711H1597.31V523.424H1515.94ZM1509.84 428.808C1518.43 428.808 1525.66 425.755 1531.54 419.651C1537.64 413.547 1540.69 406.312 1540.69 397.947C1540.69 389.356 1537.64 382.121 1531.54 376.243C1525.66 370.139 1518.43 367.087 1509.84 367.087C1501.47 367.087 1494.24 370.139 1488.14 376.243C1482.04 382.121 1478.99 389.356 1478.99 397.947C1478.99 406.312 1482.04 413.547 1488.14 419.651C1494.24 425.755 1501.47 428.808 1509.84 428.808Z" fill="#251B4C"/>
<path d="M1739.94 526.815C1724.34 526.815 1709.99 523.084 1696.88 515.624C1684 507.937 1673.71 497.65 1666.03 484.763C1658.57 471.877 1654.84 457.746 1654.84 442.373V367.087C1654.84 351.487 1658.57 337.357 1666.03 324.696C1673.71 311.809 1684 301.635 1696.88 294.175C1709.99 286.488 1724.34 282.644 1739.94 282.644C1755.53 282.644 1769.66 286.488 1782.32 294.175C1795.2 301.635 1805.37 311.809 1812.83 324.696C1820.52 337.357 1824.36 351.487 1824.36 367.087V442.373C1824.36 457.746 1820.52 471.877 1812.83 484.763C1805.37 497.65 1795.2 507.937 1782.32 515.624C1769.66 523.084 1755.53 526.815 1739.94 526.815ZM1739.94 442.033C1750.33 442.033 1759.15 438.416 1766.38 431.181C1773.62 423.947 1777.23 415.129 1777.23 404.73C1777.23 394.104 1773.62 385.173 1766.38 377.939C1759.15 370.704 1750.33 367.087 1739.94 367.087C1729.54 367.087 1720.61 370.704 1713.15 377.939C1705.92 385.173 1702.3 394.104 1702.3 404.73C1702.3 415.129 1705.92 423.947 1713.15 431.181C1720.61 438.416 1729.54 442.033 1739.94 442.033Z" fill="#251B4C"/>
<path d="M1950.34 523.424V481.711H1844.56V398.286L1942.54 286.036H2031.71V410.495H2069V481.711H2031.71V523.424H1950.34ZM1944.23 428.808C1952.82 428.808 1960.05 425.755 1965.93 419.651C1972.03 413.547 1975.09 406.312 1975.09 397.947C1975.09 389.356 1972.03 382.121 1965.93 376.243C1960.05 370.139 1952.82 367.087 1944.23 367.087C1935.87 367.087 1928.64 370.139 1922.53 376.243C1916.43 382.121 1913.38 389.356 1913.38 397.947C1913.38 406.312 1916.43 413.547 1922.53 419.651C1928.64 425.755 1935.87 428.808 1944.23 428.808Z" fill="#251B4C"/>
<path d="M-522.219 796.609V754.896H-628V671.471L-530.017 559.221H-440.85V683.68H-403.555V754.896H-440.85V796.609H-522.219ZM-528.322 701.993C-519.733 701.993 -512.5 698.941 -506.624 692.836C-500.521 686.732 -497.469 679.497 -497.469 671.132C-497.469 662.541 -500.521 655.306 -506.624 649.428C-512.5 643.324 -519.733 640.272 -528.322 640.272C-536.685 640.272 -543.918 643.324 -550.021 649.428C-556.123 655.306 -559.175 662.541 -559.175 671.132C-559.175 679.497 -556.123 686.732 -550.021 692.836C-543.918 698.941 -536.685 701.993 -528.322 701.993Z" fill="#251B4C"/>
<path d="M-298.222 800C-313.818 800 -328.171 796.27 -341.281 788.809C-354.164 781.122 -364.448 770.835 -372.133 757.948C-379.592 745.062 -383.322 730.931 -383.322 715.558V640.272C-383.322 624.672 -379.592 610.542 -372.133 597.881C-364.448 584.994 -354.164 574.821 -341.281 567.36C-328.171 559.673 -313.818 555.83 -298.222 555.83C-282.627 555.83 -268.5 559.673 -255.842 567.36C-242.959 574.821 -232.788 584.994 -225.329 597.881C-217.644 610.542 -213.801 624.672 -213.801 640.272V715.558C-213.801 730.931 -217.644 745.062 -225.329 757.948C-232.788 770.835 -242.959 781.122 -255.842 788.809C-268.5 796.27 -282.627 800 -298.222 800ZM-298.222 715.219C-287.825 715.219 -279.01 711.601 -271.777 704.367C-264.544 697.132 -260.928 688.315 -260.928 677.915C-260.928 667.289 -264.544 658.359 -271.777 651.124C-279.01 643.889 -287.825 640.272 -298.222 640.272C-308.62 640.272 -317.548 643.889 -325.007 651.124C-332.239 658.359 -335.856 667.289 -335.856 677.915C-335.856 688.315 -332.239 697.132 -325.007 704.367C-317.548 711.601 -308.62 715.219 -298.222 715.219Z" fill="#251B4C"/>
<path d="M-87.8241 796.609V754.896H-193.605V671.471L-95.622 559.221H-6.45441V683.68H30.84V754.896H-6.45441V796.609H-87.8241ZM-93.9268 701.993C-85.3378 701.993 -78.1049 698.941 -72.2283 692.836C-66.1255 686.732 -63.0742 679.497 -63.0742 671.132C-63.0742 662.541 -66.1255 655.306 -72.2283 649.428C-78.1049 643.324 -85.3378 640.272 -93.9268 640.272C-102.29 640.272 -109.523 643.324 -115.625 649.428C-121.728 655.306 -124.78 662.541 -124.78 671.132C-124.78 679.497 -121.728 686.732 -115.625 692.836C-109.523 698.941 -102.29 701.993 -93.9268 701.993Z" fill="#251B4C"/>
<path d="M157.167 796.609V754.896H51.3867V671.471L149.369 559.221H238.537V683.68H275.831V754.896H238.537V796.609H157.167ZM151.065 701.993C159.654 701.993 166.886 698.941 172.763 692.836C178.866 686.732 181.917 679.497 181.917 671.132C181.917 662.541 178.866 655.306 172.763 649.428C166.886 643.324 159.654 640.272 151.065 640.272C142.702 640.272 135.469 643.324 129.366 649.428C123.263 655.306 120.212 662.541 120.212 671.132C120.212 679.497 123.263 686.732 129.366 692.836C135.469 698.941 142.702 701.993 151.065 701.993Z" fill="#251B4C"/>
<path d="M381.164 800C365.568 800 351.216 796.27 338.106 788.809C325.223 781.122 314.938 770.835 307.253 757.948C299.795 745.062 296.065 730.931 296.065 715.558V640.272C296.065 624.672 299.795 610.542 307.253 597.881C314.938 584.994 325.223 574.821 338.106 567.36C351.216 559.673 365.568 555.83 381.164 555.83C396.76 555.83 410.887 559.673 423.544 567.36C436.428 574.821 446.599 584.994 454.058 597.881C461.743 610.542 465.585 624.672 465.585 640.272V715.558C465.585 730.931 461.743 745.062 454.058 757.948C446.599 770.835 436.428 781.122 423.544 788.809C410.887 796.27 396.76 800 381.164 800ZM381.164 715.219C391.562 715.219 400.376 711.601 407.609 704.367C414.842 697.132 418.459 688.315 418.459 677.915C418.459 667.289 414.842 658.359 407.609 651.124C400.376 643.889 391.562 640.272 381.164 640.272C370.767 640.272 361.839 643.889 354.38 651.124C347.147 658.359 343.531 667.289 343.531 677.915C343.531 688.315 347.147 697.132 354.38 704.367C361.839 711.601 370.767 715.219 381.164 715.219Z" fill="#251B4C"/>
<path d="M591.562 796.609V754.896H485.782V671.471L583.765 559.221H672.932V683.68H710.227V754.896H672.932V796.609H591.562ZM585.46 701.993C594.049 701.993 601.282 698.941 607.158 692.836C613.261 686.732 616.312 679.497 616.312 671.132C616.312 662.541 613.261 655.306 607.158 649.428C601.282 643.324 594.049 640.272 585.46 640.272C577.097 640.272 569.864 643.324 563.761 649.428C557.659 655.306 554.607 662.541 554.607 671.132C554.607 679.497 557.659 686.732 563.761 692.836C569.864 698.941 577.097 701.993 585.46 701.993Z" fill="#251B4C"/>
<path d="M836.554 796.609V754.896H730.773V671.471L828.756 559.221H917.924V683.68H955.218V754.896H917.924V796.609H836.554ZM830.451 701.993C839.04 701.993 846.273 698.941 852.15 692.836C858.253 686.732 861.304 679.497 861.304 671.132C861.304 662.541 858.253 655.306 852.15 649.428C846.273 643.324 839.04 640.272 830.451 640.272C822.088 640.272 814.855 643.324 808.753 649.428C802.65 655.306 799.599 662.541 799.599 671.132C799.599 679.497 802.65 686.732 808.753 692.836C814.855 698.941 822.088 701.993 830.451 701.993Z" fill="#251B4C"/>
<path d="M1060.55 800C1044.96 800 1030.6 796.27 1017.49 788.809C1004.61 781.122 994.325 770.835 986.64 757.948C979.181 745.062 975.452 730.931 975.452 715.558V640.272C975.452 624.672 979.181 610.542 986.64 597.881C994.325 584.994 1004.61 574.821 1017.49 567.36C1030.6 559.673 1044.96 555.83 1060.55 555.83C1076.15 555.83 1090.27 559.673 1102.93 567.36C1115.81 574.821 1125.99 584.994 1133.44 597.881C1141.13 610.542 1144.97 624.672 1144.97 640.272V715.558C1144.97 730.931 1141.13 745.062 1133.44 757.948C1125.99 770.835 1115.81 781.122 1102.93 788.809C1090.27 796.27 1076.15 800 1060.55 800ZM1060.55 715.219C1070.95 715.219 1079.76 711.601 1087 704.367C1094.23 697.132 1097.85 688.315 1097.85 677.915C1097.85 667.289 1094.23 658.359 1087 651.124C1079.76 643.889 1070.95 640.272 1060.55 640.272C1050.15 640.272 1041.23 643.889 1033.77 651.124C1026.53 658.359 1022.92 667.289 1022.92 677.915C1022.92 688.315 1026.53 697.132 1033.77 704.367C1041.23 711.601 1050.15 715.219 1060.55 715.219Z" fill="#251B4C"/>
<path d="M1270.95 796.609V754.896H1165.17V671.471L1263.15 559.221H1352.32V683.68H1389.61V754.896H1352.32V796.609H1270.95ZM1264.85 701.993C1273.44 701.993 1280.67 698.941 1286.55 692.836C1292.65 686.732 1295.7 679.497 1295.7 671.132C1295.7 662.541 1292.65 655.306 1286.55 649.428C1280.67 643.324 1273.44 640.272 1264.85 640.272C1256.48 640.272 1249.25 643.324 1243.15 649.428C1237.05 655.306 1233.99 662.541 1233.99 671.132C1233.99 679.497 1237.05 686.732 1243.15 692.836C1249.25 698.941 1256.48 701.993 1264.85 701.993Z" fill="#251B4C"/>
<path d="M1515.94 796.609V754.896H1410.16V671.471L1508.14 559.221H1597.31V683.68H1634.6V754.896H1597.31V796.609H1515.94ZM1509.84 701.993C1518.43 701.993 1525.66 698.941 1531.54 692.836C1537.64 686.732 1540.69 679.497 1540.69 671.132C1540.69 662.541 1537.64 655.306 1531.54 649.428C1525.66 643.324 1518.43 640.272 1509.84 640.272C1501.47 640.272 1494.24 643.324 1488.14 649.428C1482.04 655.306 1478.99 662.541 1478.99 671.132C1478.99 679.497 1482.04 686.732 1488.14 692.836C1494.24 698.941 1501.47 701.993 1509.84 701.993Z" fill="#251B4C"/>
<path d="M1739.94 800C1724.34 800 1709.99 796.27 1696.88 788.809C1684 781.122 1673.71 770.835 1666.03 757.948C1658.57 745.062 1654.84 730.931 1654.84 715.558V640.272C1654.84 624.672 1658.57 610.542 1666.03 597.881C1673.71 584.994 1684 574.821 1696.88 567.36C1709.99 559.673 1724.34 555.83 1739.94 555.83C1755.53 555.83 1769.66 559.673 1782.32 567.36C1795.2 574.821 1805.37 584.994 1812.83 597.881C1820.52 610.542 1824.36 624.672 1824.36 640.272V715.558C1824.36 730.931 1820.52 745.062 1812.83 757.948C1805.37 770.835 1795.2 781.122 1782.32 788.809C1769.66 796.27 1755.53 800 1739.94 800ZM1739.94 715.219C1750.33 715.219 1759.15 711.601 1766.38 704.367C1773.62 697.132 1777.23 688.315 1777.23 677.915C1777.23 667.289 1773.62 658.359 1766.38 651.124C1759.15 643.889 1750.33 640.272 1739.94 640.272C1729.54 640.272 1720.61 643.889 1713.15 651.124C1705.92 658.359 1702.3 667.289 1702.3 677.915C1702.3 688.315 1705.92 697.132 1713.15 704.367C1720.61 711.601 1729.54 715.219 1739.94 715.219Z" fill="#251B4C"/>
<path d="M1950.34 796.609V754.896H1844.56V671.471L1942.54 559.221H2031.71V683.68H2069V754.896H2031.71V796.609H1950.34ZM1944.23 701.993C1952.82 701.993 1960.05 698.941 1965.93 692.836C1972.03 686.732 1975.09 679.497 1975.09 671.132C1975.09 662.541 1972.03 655.306 1965.93 649.428C1960.05 643.324 1952.82 640.272 1944.23 640.272C1935.87 640.272 1928.64 643.324 1922.53 649.428C1916.43 655.306 1913.38 662.541 1913.38 671.132C1913.38 679.497 1916.43 686.732 1922.53 692.836C1928.64 698.941 1935.87 701.993 1944.23 701.993Z" fill="#251B4C"/>
</g>
</svg>
