<svg width="55" height="54" viewBox="0 0 55 54" fill="none" xmlns="http://www.w3.org/2000/svg">
<g filter="url(#filter0_i_811_634)">
<rect x="0.333496" width="54" height="54" rx="27" fill="#251B4C"/>
<path d="M35.9543 20.25H34.8377C34.8366 20.25 34.8355 20.2504 34.8347 20.2512C34.8339 20.252 34.8335 20.2531 34.8335 20.2542V34.5C34.8335 34.8978 34.9915 35.2794 35.2728 35.5607C35.5541 35.842 35.9357 36 36.3335 36C36.7313 36 37.1129 35.842 37.3942 35.5607C37.6755 35.2794 37.8335 34.8978 37.8335 34.5V22.1292C37.8335 21.6308 37.6355 21.1528 37.2831 20.8004C36.9307 20.448 36.4527 20.25 35.9543 20.25Z" fill="white"/>
<path d="M33.3335 34.5V18.375C33.3335 18.1288 33.285 17.885 33.1908 17.6575C33.0965 17.43 32.9584 17.2233 32.7843 17.0492C32.6102 16.8751 32.4035 16.737 32.176 16.6427C31.9485 16.5485 31.7047 16.5 31.4585 16.5H18.7085C18.2112 16.5 17.7343 16.6975 17.3827 17.0492C17.031 17.4008 16.8335 17.8777 16.8335 18.375V34.875C16.8335 35.5712 17.1101 36.2389 17.6023 36.7312C18.0946 37.2234 18.7623 37.5 19.4585 37.5H35.5296C35.5367 37.5001 35.5437 37.4987 35.5503 37.496C35.5569 37.4933 35.5628 37.4894 35.5678 37.4844C35.5729 37.4793 35.5768 37.4734 35.5795 37.4668C35.5822 37.4602 35.5836 37.4532 35.5835 37.4461C35.5835 37.4343 35.5795 37.4229 35.5723 37.4135C35.5651 37.4042 35.555 37.3975 35.5437 37.3945C34.9092 37.2205 34.3494 36.8431 33.9502 36.3202C33.5509 35.7973 33.3343 35.1579 33.3335 34.5ZM19.8335 21C19.8335 20.8011 19.9125 20.6103 20.0532 20.4697C20.1938 20.329 20.3846 20.25 20.5835 20.25H23.5835C23.7824 20.25 23.9732 20.329 24.1138 20.4697C24.2545 20.6103 24.3335 20.8011 24.3335 21V24C24.3335 24.1989 24.2545 24.3897 24.1138 24.5303C23.9732 24.671 23.7824 24.75 23.5835 24.75H20.5835C20.3846 24.75 20.1938 24.671 20.0532 24.5303C19.9125 24.3897 19.8335 24.1989 19.8335 24V21ZM29.5835 33.75H20.6046C20.201 33.75 19.8546 33.4397 19.8344 33.0361C19.8295 32.9347 19.8453 32.8333 19.8807 32.7382C19.9162 32.6431 19.9706 32.5561 20.0406 32.4826C20.1106 32.4091 20.1949 32.3506 20.2882 32.3106C20.3815 32.2706 20.482 32.25 20.5835 32.25H29.5624C29.966 32.25 30.3124 32.5603 30.3326 32.9639C30.3374 33.0653 30.3217 33.1667 30.2863 33.2618C30.2508 33.3569 30.1964 33.4439 30.1264 33.5174C30.0564 33.5909 29.9721 33.6494 29.8788 33.6894C29.7855 33.7294 29.685 33.75 29.5835 33.75ZM29.5835 30.75H20.6046C20.201 30.75 19.8546 30.4397 19.8344 30.0361C19.8295 29.9347 19.8453 29.8333 19.8807 29.7382C19.9162 29.6431 19.9706 29.5561 20.0406 29.4826C20.1106 29.4091 20.1949 29.3506 20.2882 29.3106C20.3815 29.2706 20.482 29.25 20.5835 29.25H29.5624C29.966 29.25 30.3124 29.5603 30.3326 29.9639C30.3374 30.0653 30.3217 30.1667 30.2863 30.2618C30.2508 30.3569 30.1964 30.4439 30.1264 30.5174C30.0564 30.5909 29.9721 30.6494 29.8788 30.6894C29.7855 30.7294 29.685 30.75 29.5835 30.75ZM29.5835 27.75H20.6046C20.201 27.75 19.8546 27.4397 19.8344 27.0361C19.8295 26.9347 19.8453 26.8333 19.8807 26.7382C19.9162 26.6431 19.9706 26.5561 20.0406 26.4826C20.1106 26.4091 20.1949 26.3506 20.2882 26.3106C20.3815 26.2706 20.482 26.25 20.5835 26.25H29.5624C29.966 26.25 30.3124 26.5603 30.3326 26.9639C30.3374 27.0653 30.3217 27.1667 30.2863 27.2618C30.2508 27.3569 30.1964 27.4439 30.1264 27.5174C30.0564 27.5909 29.9721 27.6494 29.8788 27.6894C29.7855 27.7294 29.685 27.75 29.5835 27.75ZM29.5835 24.75H26.6046C26.201 24.75 25.8546 24.4397 25.8344 24.0361C25.8295 23.9347 25.8453 23.8333 25.8807 23.7382C25.9162 23.6431 25.9706 23.5561 26.0406 23.4826C26.1106 23.4091 26.1949 23.3506 26.2882 23.3106C26.3815 23.2706 26.482 23.25 26.5835 23.25H29.5624C29.966 23.25 30.3124 23.5603 30.3326 23.9639C30.3374 24.0653 30.3217 24.1667 30.2863 24.2618C30.2508 24.3569 30.1964 24.4439 30.1264 24.5174C30.0564 24.5909 29.9721 24.6494 29.8788 24.6894C29.7855 24.7294 29.685 24.75 29.5835 24.75ZM29.5835 21.75H26.6046C26.201 21.75 25.8546 21.4397 25.8344 21.0361C25.8295 20.9347 25.8453 20.8333 25.8807 20.7382C25.9162 20.6431 25.9706 20.5561 26.0406 20.4826C26.1106 20.4091 26.1949 20.3506 26.2882 20.3106C26.3815 20.2706 26.482 20.25 26.5835 20.25H29.5624C29.966 20.25 30.3124 20.5603 30.3326 20.9639C30.3374 21.0653 30.3217 21.1667 30.2863 21.2618C30.2508 21.3569 30.1964 21.4439 30.1264 21.5174C30.0564 21.5909 29.9721 21.6494 29.8788 21.6894C29.7855 21.7294 29.685 21.75 29.5835 21.75Z" fill="white"/>
</g>
<defs>
<filter id="filter0_i_811_634" x="-0.666504" y="0" width="55" height="54" filterUnits="userSpaceOnUse" color-interpolation-filters="sRGB">
<feFlood flood-opacity="0" result="BackgroundImageFix"/>
<feBlend mode="normal" in="SourceGraphic" in2="BackgroundImageFix" result="shape"/>
<feColorMatrix in="SourceAlpha" type="matrix" values="0 0 0 0 0 0 0 0 0 0 0 0 0 0 0 0 0 0 127 0" result="hardAlpha"/>
<feOffset dx="-1"/>
<feGaussianBlur stdDeviation="0.5"/>
<feComposite in2="hardAlpha" operator="arithmetic" k2="-1" k3="1"/>
<feColorMatrix type="matrix" values="0 0 0 0 1 0 0 0 0 1 0 0 0 0 1 0 0 0 0.2 0"/>
<feBlend mode="normal" in2="shape" result="effect1_innerShadow_811_634"/>
</filter>
</defs>
</svg>
