<svg width="54" height="54" viewBox="0 0 54 54" fill="none" xmlns="http://www.w3.org/2000/svg">
<g filter="url(#filter0_i_811_606)">
<rect width="54" height="54" rx="27" fill="#251B4C"/>
<path d="M20.7058 16.5C20.6747 16.4997 20.644 16.5072 20.6165 16.5217C20.589 16.5362 20.5656 16.5574 20.5483 16.5832C20.531 16.6091 20.5204 16.6388 20.5174 16.6698C20.5145 16.7008 20.5193 16.732 20.5315 16.7606L20.6393 17.0152L22.5471 21.4636C22.56 21.4939 22.5807 21.5202 22.6071 21.5399C22.6335 21.5596 22.6645 21.572 22.6972 21.5759C22.7299 21.5798 22.7631 21.575 22.7933 21.5621C22.8236 21.5491 22.8499 21.5284 22.8696 21.502L26.3908 16.8C26.4117 16.7722 26.4244 16.739 26.4276 16.7043C26.4307 16.6697 26.4241 16.6348 26.4085 16.6037C26.393 16.5725 26.369 16.5463 26.3394 16.528C26.3098 16.5097 26.2756 16.5 26.2408 16.5H20.7058Z" fill="white"/>
<path d="M34.6844 17.7217L32.7494 22.239C32.7373 22.2676 32.7323 22.2987 32.7351 22.3295C32.7379 22.3604 32.7483 22.3901 32.7654 22.416C32.7825 22.4419 32.8058 22.4631 32.8331 22.4778C32.8604 22.4925 32.8909 22.5001 32.9219 22.5001H37.6563C37.6897 22.5002 37.7226 22.4912 37.7514 22.4743C37.7802 22.4574 37.804 22.433 37.8202 22.4038C37.8365 22.3746 37.8446 22.3416 37.8438 22.3082C37.843 22.2747 37.8333 22.2421 37.8157 22.2137L35.0158 17.6969C34.9977 17.6678 34.972 17.6442 34.9415 17.6287C34.911 17.6132 34.8768 17.6064 34.8426 17.6089C34.8085 17.6115 34.7757 17.6233 34.7478 17.6432C34.7199 17.6631 34.698 17.6903 34.6844 17.7217Z" fill="white"/>
<path d="M18.9843 17.6987L16.1854 22.2137C16.1678 22.2421 16.1581 22.2747 16.1573 22.3081C16.1565 22.3415 16.1646 22.3746 16.1809 22.4038C16.1971 22.433 16.2209 22.4573 16.2497 22.4743C16.2786 22.4912 16.3114 22.5001 16.3448 22.5001H21.0792C21.1102 22.5001 21.1407 22.4923 21.168 22.4776C21.1954 22.4628 21.2186 22.4416 21.2356 22.4156C21.2527 22.3897 21.263 22.36 21.2657 22.3291C21.2685 22.2981 21.2635 22.267 21.2512 22.2385L19.3125 17.7235C19.2986 17.6929 19.2767 17.6665 19.2492 17.6472C19.2216 17.6279 19.1893 17.6164 19.1558 17.6138C19.1222 17.6113 19.0886 17.6178 19.0584 17.6328C19.0283 17.6477 19.0027 17.6705 18.9843 17.6987Z" fill="white"/>
<path d="M33.4349 16.5H27.5544C27.5374 16.4999 27.5208 16.5045 27.5063 16.5134C27.4919 16.5223 27.4802 16.535 27.4725 16.5502C27.4649 16.5653 27.4617 16.5823 27.4633 16.5992C27.4648 16.6161 27.4711 16.6322 27.4813 16.6458L31.2275 21.6361C31.2371 21.6489 31.2499 21.659 31.2646 21.6653C31.2793 21.6716 31.2954 21.6739 31.3112 21.672C31.3271 21.6701 31.3422 21.6641 31.355 21.6545C31.3678 21.6449 31.3778 21.6321 31.3841 21.6173L33.3566 17.0156L33.516 16.6247C33.5216 16.6113 33.5239 16.5967 33.5226 16.5822C33.5214 16.5677 33.5166 16.5537 33.5088 16.5415C33.501 16.5292 33.4903 16.519 33.4776 16.5118C33.465 16.5046 33.4508 16.5005 33.4363 16.5H33.4349Z" fill="white"/>
<path d="M26.2031 36L22.0111 24.1177C21.9988 24.0832 21.9761 24.0533 21.9461 24.0322C21.9161 24.0112 21.8804 23.9999 21.8437 24H16.2047C16.172 23.9999 16.14 24.009 16.1122 24.0262C16.0844 24.0434 16.0621 24.0681 16.0477 24.0974C16.0333 24.1268 16.0274 24.1595 16.0307 24.192C16.034 24.2245 16.0464 24.2554 16.0664 24.2813L26.1914 37.3973C26.2257 37.4417 26.2745 37.4725 26.3294 37.4843C26.3842 37.4961 26.4414 37.488 26.4909 37.4616C26.5407 37.4354 26.5793 37.3922 26.5999 37.3399C26.6205 37.2876 26.6215 37.2296 26.6029 37.1766L26.2031 36Z" fill="white"/>
<path d="M37.7956 24H32.1565C32.1201 24 32.0845 24.0113 32.0548 24.0324C32.0251 24.0535 32.0026 24.0833 31.9906 24.1177L27.3875 37.1564C27.3681 37.2111 27.3689 37.271 27.3897 37.3252C27.4105 37.3794 27.4499 37.4244 27.5009 37.4522C27.5519 37.4798 27.611 37.4884 27.6678 37.4765C27.7245 37.4645 27.7752 37.4328 27.8108 37.387L37.9339 24.2813C37.9539 24.2554 37.9663 24.2245 37.9696 24.192C37.9729 24.1595 37.967 24.1268 37.9526 24.0974C37.9382 24.0681 37.9158 24.0434 37.8881 24.0262C37.8603 24.009 37.8283 23.9999 37.7956 24Z" fill="white"/>
<path d="M27.1499 18.7L29.7749 22.2002C29.7958 22.228 29.8085 22.2611 29.8117 22.2958C29.8148 22.3305 29.8082 22.3654 29.7926 22.3965C29.7771 22.4277 29.7531 22.4538 29.7235 22.4722C29.6939 22.4905 29.6597 22.5002 29.6249 22.5002H24.3749C24.3401 22.5002 24.306 22.4905 24.2764 22.4722C24.2467 22.4538 24.2228 22.4277 24.2072 22.3965C24.1916 22.3654 24.1851 22.3305 24.1882 22.2958C24.1913 22.2611 24.204 22.228 24.2249 22.2002L26.8499 18.7C26.8674 18.6767 26.89 18.6578 26.9161 18.6448C26.9421 18.6318 26.9708 18.625 26.9999 18.625C27.029 18.625 27.0577 18.6318 27.0838 18.6448C27.1098 18.6578 27.1325 18.6767 27.1499 18.7ZM26.8218 33.2458L23.6484 24.25C23.6384 24.2217 23.6354 24.1915 23.6395 24.1618C23.6436 24.1321 23.6548 24.1039 23.6721 24.0794C23.6894 24.0549 23.7123 24.0349 23.739 24.0212C23.7656 24.0074 23.7951 24.0002 23.8251 24.0002H30.1748C30.2047 24.0002 30.2343 24.0074 30.2609 24.0212C30.2875 24.0349 30.3104 24.0549 30.3277 24.0794C30.345 24.1039 30.3562 24.1321 30.3604 24.1618C30.3645 24.1915 30.3615 24.2217 30.3515 24.25L27.1766 33.2458C27.1637 33.2823 27.1398 33.3139 27.1081 33.3363C27.0765 33.3586 27.0387 33.3706 26.9999 33.3706C26.9612 33.3706 26.9234 33.3586 26.8917 33.3363C26.8601 33.3139 26.8362 33.2823 26.8232 33.2458H26.8218Z" fill="white"/>
</g>
<defs>
<filter id="filter0_i_811_606" x="-1" y="0" width="55" height="54" filterUnits="userSpaceOnUse" color-interpolation-filters="sRGB">
<feFlood flood-opacity="0" result="BackgroundImageFix"/>
<feBlend mode="normal" in="SourceGraphic" in2="BackgroundImageFix" result="shape"/>
<feColorMatrix in="SourceAlpha" type="matrix" values="0 0 0 0 0 0 0 0 0 0 0 0 0 0 0 0 0 0 127 0" result="hardAlpha"/>
<feOffset dx="-1"/>
<feGaussianBlur stdDeviation="0.5"/>
<feComposite in2="hardAlpha" operator="arithmetic" k2="-1" k3="1"/>
<feColorMatrix type="matrix" values="0 0 0 0 1 0 0 0 0 1 0 0 0 0 1 0 0 0 0.2 0"/>
<feBlend mode="normal" in2="shape" result="effect1_innerShadow_811_606"/>
</filter>
</defs>
</svg>
