<svg width="55" height="54" viewBox="0 0 55 54" fill="none" xmlns="http://www.w3.org/2000/svg">
<g filter="url(#filter0_i_811_1196)">
<rect x="0.666748" width="54" height="54" rx="27" fill="#251B4C"/>
<path fill-rule="evenodd" clip-rule="evenodd" d="M32.4766 20.3101C32.6757 20.3099 32.8666 20.389 33.0074 20.5297L34.1371 21.6594C34.2779 21.8002 34.3569 21.9911 34.3568 22.1902C34.3566 22.3893 34.2774 22.5801 34.1364 22.7207L21.3489 35.4768C21.2793 35.5463 21.1966 35.6015 21.1056 35.639L19.2344 36.412C18.9542 36.5277 18.632 36.4634 18.4177 36.2491C18.2034 36.0348 18.1391 35.7126 18.2548 35.4325L19.0278 33.5612C19.0654 33.4702 19.1205 33.3876 19.19 33.3179L31.9461 20.5304C32.0867 20.3894 32.2775 20.3102 32.4766 20.3101ZM32.4777 22.1214L20.3573 34.2717L20.3306 34.3362L20.3951 34.3096L32.5455 22.1891L32.4777 22.1214Z" fill="white"/>
<path fill-rule="evenodd" clip-rule="evenodd" d="M34.9935 17.6473C35.1784 17.5707 35.3766 17.5312 35.5767 17.5312C35.7769 17.5312 35.975 17.5707 36.1599 17.6473C36.3448 17.7239 36.5128 17.8361 36.6543 17.9776C36.6543 17.9776 36.6543 17.9776 36.6543 17.9776L36.6895 18.0128C36.975 18.2985 37.1356 18.6862 37.1356 19.0901C37.1356 19.4941 36.9752 19.8815 36.6897 20.1673L36.1368 20.7202C35.8439 21.0131 35.3691 21.0131 35.0762 20.7202L33.9465 19.5905C33.8058 19.4498 33.7268 19.2589 33.7268 19.06C33.7268 18.861 33.806 18.6702 33.9467 18.5296L34.4991 17.9777C34.499 17.9777 34.4992 17.9776 34.4991 17.9777C34.6406 17.8362 34.8087 17.7238 34.9935 17.6473ZM35.5767 19.0312C35.5736 19.0312 35.5705 19.0319 35.5676 19.0331C35.5647 19.0343 35.562 19.036 35.5598 19.0383L35.5377 19.0604L35.6065 19.1292L35.6286 19.107C35.6331 19.1026 35.6356 19.0965 35.6356 19.0901C35.6356 19.0838 35.6331 19.0777 35.6286 19.0732L35.5937 19.0383C35.5914 19.0361 35.5888 19.0343 35.5859 19.0331C35.583 19.0319 35.5799 19.0312 35.5767 19.0312Z" fill="white"/>
</g>
<defs>
<filter id="filter0_i_811_1196" x="-0.333252" y="0" width="55" height="54" filterUnits="userSpaceOnUse" color-interpolation-filters="sRGB">
<feFlood flood-opacity="0" result="BackgroundImageFix"/>
<feBlend mode="normal" in="SourceGraphic" in2="BackgroundImageFix" result="shape"/>
<feColorMatrix in="SourceAlpha" type="matrix" values="0 0 0 0 0 0 0 0 0 0 0 0 0 0 0 0 0 0 127 0" result="hardAlpha"/>
<feOffset dx="-1"/>
<feGaussianBlur stdDeviation="0.5"/>
<feComposite in2="hardAlpha" operator="arithmetic" k2="-1" k3="1"/>
<feColorMatrix type="matrix" values="0 0 0 0 1 0 0 0 0 1 0 0 0 0 1 0 0 0 0.2 0"/>
<feBlend mode="normal" in2="shape" result="effect1_innerShadow_811_1196"/>
</filter>
</defs>
</svg>
