<svg width="55" height="54" viewBox="0 0 55 54" fill="none" xmlns="http://www.w3.org/2000/svg">
<g filter="url(#filter0_i_811_120)">
<rect x="0.333496" width="54" height="54" rx="27" fill="#251B4C"/>
<path d="M33.8022 37.5002C33.6444 37.5008 33.4903 37.4516 33.3621 37.3596L27.3335 32.989L21.3049 37.3596C21.1761 37.453 21.0209 37.5031 20.8618 37.5025C20.7027 37.5019 20.5479 37.4507 20.4198 37.3564C20.2917 37.262 20.1969 37.1294 20.1491 36.9776C20.1014 36.8258 20.1031 36.6628 20.1541 36.5121L22.5054 29.5479L16.4116 25.369C16.2796 25.2786 16.18 25.1483 16.1273 24.9972C16.0746 24.8462 16.0716 24.6822 16.1187 24.5293C16.1658 24.3764 16.2606 24.2426 16.3892 24.1474C16.5178 24.0522 16.6735 24.0006 16.8335 24.0002H24.3513L26.62 17.0182C26.6689 16.8675 26.7643 16.7361 26.8925 16.6429C27.0206 16.5497 27.175 16.4995 27.3335 16.4995C27.4919 16.4995 27.6463 16.5497 27.7745 16.6429C27.9027 16.7361 27.998 16.8675 28.0469 17.0182L30.3157 24.0026H37.8335C37.9937 24.0025 38.1497 24.0537 38.2787 24.1487C38.4076 24.2437 38.5028 24.3775 38.5502 24.5305C38.5977 24.6836 38.5948 24.8477 38.5422 24.999C38.4896 25.1503 38.3899 25.2808 38.2577 25.3713L32.1616 29.5479L34.5114 36.5102C34.5495 36.6229 34.5602 36.7431 34.5427 36.8608C34.5252 36.9785 34.4799 37.0903 34.4106 37.187C34.3413 37.2837 34.25 37.3626 34.1442 37.417C34.0384 37.4715 33.9212 37.5 33.8022 37.5002Z" fill="white"/>
</g>
<defs>
<filter id="filter0_i_811_120" x="-0.666504" y="0" width="55" height="54" filterUnits="userSpaceOnUse" color-interpolation-filters="sRGB">
<feFlood flood-opacity="0" result="BackgroundImageFix"/>
<feBlend mode="normal" in="SourceGraphic" in2="BackgroundImageFix" result="shape"/>
<feColorMatrix in="SourceAlpha" type="matrix" values="0 0 0 0 0 0 0 0 0 0 0 0 0 0 0 0 0 0 127 0" result="hardAlpha"/>
<feOffset dx="-1"/>
<feGaussianBlur stdDeviation="0.5"/>
<feComposite in2="hardAlpha" operator="arithmetic" k2="-1" k3="1"/>
<feColorMatrix type="matrix" values="0 0 0 0 1 0 0 0 0 1 0 0 0 0 1 0 0 0 0.2 0"/>
<feBlend mode="normal" in2="shape" result="effect1_innerShadow_811_120"/>
</filter>
</defs>
</svg>
