<svg width="13" height="9" viewBox="0 0 13 9" fill="none" xmlns="http://www.w3.org/2000/svg">
<path fill-rule="evenodd" clip-rule="evenodd" d="M12.5379 1.36202C12.5379 0.96576 12.2389 0.644531 11.8702 0.644531H11.2025C10.8337 0.644531 10.5348 0.96576 10.5348 1.36202V7.58022C10.5348 7.97648 10.8337 8.29771 11.2025 8.29771H11.8702C12.2389 8.29771 12.5379 7.97648 12.5379 7.58022V1.36202ZM7.88444 2.17517H8.55212C8.92087 2.17517 9.21981 2.5041 9.21981 2.90987V7.563C9.21981 7.96877 8.92087 8.29771 8.55212 8.29771H7.88444C7.51568 8.29771 7.21675 7.96877 7.21675 7.563V2.90987C7.21675 2.5041 7.51568 2.17517 7.88444 2.17517ZM5.17295 3.83335H4.50526C4.13651 3.83335 3.83758 4.16647 3.83758 4.57741V7.55364C3.83758 7.96457 4.13651 8.2977 4.50526 8.2977H5.17295C5.5417 8.2977 5.84063 7.96457 5.84063 7.55364V4.57741C5.84063 4.16647 5.5417 3.83335 5.17295 3.83335ZM1.8549 5.36399H1.18722C0.818464 5.36399 0.519531 5.69236 0.519531 6.09742V7.56428C0.519531 7.96934 0.818464 8.29771 1.18722 8.29771H1.8549C2.22365 8.29771 2.52258 7.96934 2.52258 7.56428V6.09742C2.52258 5.69236 2.22365 5.36399 1.8549 5.36399Z" fill="white"/>
</svg>
