<svg width="318" height="330" viewBox="0 0 318 330" fill="none" xmlns="http://www.w3.org/2000/svg">
<path d="M171.976 256.327L199.058 250.454L200.219 220.916L221.075 202.258L214.364 171.31L160.88 205.159L171.976 256.327Z" fill="white"/>
<path d="M140.136 155.399C144.362 157.201 152.83 160.72 157.085 162.387C176.506 162.731 229.096 163.667 247.549 159.357L255.694 120.268L261.385 109.556L267.718 96.3336L270.528 83.2836L270.9 67.2075L267.71 52.4964C266.667 54.1445 252.748 56.5053 250.885 57.0335L230.261 65.949L187.145 51.8983C183.95 48.3613 177.548 41.0648 174.516 37.4569C168.928 34.8771 157.209 30.6293 151.283 28.8693L139.146 27.6505C138.155 34.1096 136.08 48.1378 135.474 54.5133L138.05 66.3954L150.267 87.1467L162.345 99.0419L156.914 108.217C139.976 116.529 113.441 121.483 95.063 125.481L97.0262 134.534L104.261 145.998L115.886 154.437L129.931 157.612L140.136 155.399Z" fill="#FF894A"/>
<path d="M146.631 62.1651C148.379 69.1319 155.233 78.564 158.442 82.412L160.646 70.678L155.25 56.7416L143.026 42.8045C143.5 46.357 144.883 55.1982 146.631 62.1651Z" fill="white"/>
<path d="M166.153 214.686L117.881 193.992L93.1557 250.818L108.482 258.531L130.512 273.896" fill="#4882F6"/>
<path d="M54.5594 190.544C52.5646 185.615 48.2282 175.856 45.8901 171.097L88.3887 160.4C91.1351 170.711 94.5167 192.3 95.5453 202.983C91.8396 202.483 80.179 193.714 77.0473 191.591L57.1488 188.797L54.5594 190.544Z" fill="#4882F6"/>
<path d="M114.212 196.566L96.2405 203.425C95.5792 200.375 93.6663 191.554 93.0393 188.663L93.3635 183.314C91.9665 177.912 90.0665 165.865 89.2447 160.214L81.0495 161.103L83.8417 153.092L89.3604 149.798L94.7979 151.605L102.852 157.264L109.803 168.789L115.756 167.498L120.381 173.77L122.238 182.331L121.37 189.581L117.41 188.81L114.212 196.566Z" fill="white"/>
<path d="M95.0079 197.768C94.0719 192.74 92.9571 180.701 92.5519 175.492L117.255 171.616L121.251 175.069L123.356 191.621L118.744 194.99L114.93 202.038L96.7871 205.972L95.0079 197.768Z" fill="white"/>
<path d="M116.54 167.032L148.894 158.831L167.597 161.588L210.726 162.01L249.425 155.692L266.495 191.978L217.538 204.372C218.2 194.531 218.479 196.585 214.769 187.496L207.022 183.252L194.403 183.915L174.714 194.405C166.226 194.848 138.223 196.015 130.337 197.808L122.552 194.757L123.332 190.144L122.05 177.389L116.54 167.032Z" fill="#FF894A"/>
<path d="M186.081 96.2644L207.044 94.3845L212.106 83.5118L219.606 75.6651C225.07 71.2455 236.74 63.6319 243.033 60.5137L240.45 55.4459L230.672 48.6799L216.037 44.1521L203.38 46.0082L192.593 51.0133L181.63 59.3148L175.41 68.9574L171.429 83.4464L168.878 83.9997L165.607 89.4483L170.841 93.0527L186.081 96.2644Z" fill="white"/>
<path d="M137.081 286.393L129.721 263.404L112.617 250.229L113.14 218.421L129.326 198.62L163.692 213.383L169.133 219.312L168.285 230.456L170.555 240.923L179.69 250.198L196.699 246.51L199.152 257.826C192.414 259.027 179.189 262.452 172.751 264.736L174.784 278.217L160.049 274.6L148.427 277.12L137.081 286.393Z" fill="#4882F6"/>
<path d="M153.476 160.799L142.224 175.977L138.917 193.578L138.215 206.763L168.075 217.172L165.875 211.132L174.401 199.805L186.436 190.974L197.299 183.583L203.536 182.231C204.308 178.047 206.274 167.129 206.191 162.994L187.718 164.038L179.002 181.331L177.663 190.211C166.64 187.121 169.232 188.041 158.378 190.246L159.127 180.013L164.143 166.188L167.498 162.498L153.476 160.799Z" fill="#4882F6"/>
<path d="M149.093 157.011L141.554 155.091L150.602 151.648L158.087 146.47L167.164 137.689L170.568 147.911L164.071 150.801L158.042 154.478L149.093 157.011Z" fill="white"/>
<path d="M93.8064 125.161L112.761 122.235C112.236 131.063 112.283 128.79 107.745 136.06L100.46 139.417L93.8064 125.161Z" fill="black"/>
<path d="M100.521 139.7C100.391 139.728 100.258 139.662 100.195 139.54L93.5422 125.283C93.5068 125.202 93.5042 125.108 93.5518 125.026C93.5938 124.946 93.6715 124.894 93.7622 124.874L112.717 121.949C112.802 121.93 112.893 121.964 112.958 122.021C113.024 122.077 113.055 122.166 113.05 122.25C112.634 129.259 112.55 129.39 110.325 132.651C109.716 133.541 108.96 134.653 107.991 136.208C107.96 136.256 107.915 136.296 107.867 136.318L100.581 139.675C100.581 139.675 100.543 139.689 100.52 139.694L100.521 139.7ZM94.2357 125.388L100.602 139.031L107.547 135.83C108.504 134.302 109.246 133.205 109.851 132.327C111.989 129.186 112.066 129.074 112.455 122.574L94.2357 125.388Z" fill="black"/>
<path d="M48.0245 194.627C44.5805 198.318 42.419 202.448 52.9536 207.776C67.5971 216.449 98.0913 212.206 93.7449 204.262C85.5112 189.205 58.1056 183.821 48.0245 194.627Z" fill="white"/>
<path d="M89.0362 259.525L92.2652 250.792L112.096 260.117L130.395 273.329L108.527 307.988C108.527 307.988 81.9872 293.43 58.9183 279.054C32.4723 262.573 49.8133 224.749 89.0418 259.524L89.0362 259.525Z" fill="#FF894A"/>
<path d="M134.165 311.38L185.996 300.14C187.563 297.976 191.56 298.093 191.107 296.005C189.551 288.83 169.394 271.981 153.406 275.448C138.762 277.119 122.552 310.142 134.165 311.38Z" fill="#FF894A"/>
<path d="M233.883 93.5999L220.695 123.119L228.594 122.591L239.405 119.061L247.9 113.072L255.76 102.778L259.826 90.0477L259.333 76.8251L250.545 78.7308L233.883 93.5999Z" fill="white"/>
<path d="M154.322 276.659C167.953 273.603 183.04 283.198 188.866 295.116C189.568 296.819 188.626 298.06 187.195 298.47L133.436 310.128C131.953 310.349 130.604 309.605 130.526 307.768C130.892 294.507 140.649 279.524 154.322 276.659ZM153.715 273.859C138.146 277.235 128.061 293.634 127.647 307.687C127.547 311.085 130.711 313.658 134.039 312.936L187.798 301.278C203.691 294.253 168.785 267.445 153.709 273.86L153.715 273.859Z" fill="black"/>
<path d="M109.174 310.152L108 309.501C108 309.501 98.5736 304.299 79.9673 294.051C45.704 276.232 43.5331 261.869 44.1908 256.525C44.8687 251.028 48.9885 246.977 55.5037 245.404C67.6842 242.473 87.2792 248.822 101.505 269.748C101.95 270.404 101.781 271.293 101.123 271.738C100.466 272.183 99.5745 272.015 99.1296 271.359C85.6703 251.558 67.4229 245.456 56.1791 248.19C50.8937 249.467 47.5666 252.629 47.0441 256.872C46.5894 260.578 47.7095 274.038 81.3202 291.53C96.1572 299.699 105.152 304.662 108.212 306.344L128.986 274.138C124.375 270.476 104.72 255.366 91.2407 252.773C90.4601 252.623 89.9533 251.873 90.1049 251.094C90.2565 250.315 91.013 249.807 91.788 249.959C107.794 253.034 130.838 271.923 131.814 272.725L132.797 273.537L109.176 310.158L109.174 310.152Z" fill="black"/>
<path d="M136.739 286.296C136.036 286.448 135.315 286.054 135.074 285.353C134.614 283.996 123.871 251.894 132.905 235.96C135.404 231.549 139.193 228.767 144.16 227.69C144.936 227.521 145.702 228.013 145.87 228.788C146.038 229.563 145.545 230.328 144.768 230.496C140.578 231.405 137.517 233.656 135.408 237.372C126.999 252.193 137.688 284.105 137.8 284.43C138.058 285.18 137.653 285.997 136.901 286.249C136.845 286.267 136.795 286.283 136.744 286.295L136.739 286.296Z" fill="black"/>
<path d="M174.753 278.052C174.702 278.063 174.646 278.076 174.592 278.075C173.802 278.152 173.096 277.582 173.02 276.793C172.989 276.456 169.486 242.974 155.699 232.972C152.241 230.463 148.522 229.682 144.332 230.591C143.555 230.759 142.79 230.268 142.621 229.493C142.453 228.717 142.946 227.953 143.723 227.784C148.69 226.707 153.291 227.67 157.392 230.65C163.668 235.201 168.689 244.337 172.313 257.793C174.982 267.689 175.843 276.151 175.878 276.505C175.954 277.235 175.457 277.9 174.753 278.052Z" fill="black"/>
<path d="M88.6881 258.961C88.3876 259.026 88.0606 258.996 87.7625 258.854C87.0471 258.511 86.7423 257.653 87.086 256.939L118.324 191.96L166.919 214.005C167.644 214.333 167.959 215.183 167.634 215.905C167.304 216.628 166.453 216.943 165.73 216.62L119.695 195.738L89.6759 258.178C89.4753 258.595 89.102 258.871 88.6824 258.962L88.6881 258.961Z" fill="black"/>
<path d="M134.849 237.422C134.588 237.479 134.306 237.463 134.035 237.362C128.712 235.347 123.888 231.304 123.685 231.135C123.082 230.625 123.004 229.718 123.52 229.115C124.031 228.512 124.94 228.434 125.543 228.943C125.587 228.98 130.2 232.844 135.056 234.682C135.8 234.965 136.17 235.791 135.891 236.533C135.714 237.003 135.31 237.328 134.85 237.428L134.849 237.422Z" fill="black"/>
<path d="M169.056 220.436C168.58 220.54 168.069 220.402 167.708 220.024C164.078 216.202 161.855 209.622 171.912 199.989C179.648 192.577 191.588 186.208 198.019 183.071C202.143 181.064 206.244 179.28 209.568 178.049C214.844 176.099 215.669 176.4 216.332 177.074C216.882 177.642 216.872 178.551 216.302 179.101C215.9 179.49 215.335 179.595 214.836 179.431C210.542 179.722 174.433 195.491 168.361 209.319C166.908 212.638 167.372 215.488 169.794 218.037C170.34 218.612 170.317 219.517 169.741 220.063C169.544 220.248 169.303 220.371 169.059 220.424L169.056 220.436Z" fill="black"/>
<path d="M185.836 251.141C183.92 251.556 181.888 251.469 179.843 250.852C174.446 249.232 169.908 244.239 167.703 237.49C162.777 222.438 171.43 212.084 171.799 211.649C172.315 211.045 173.219 210.973 173.824 211.488C174.428 212.003 174.499 212.906 173.983 213.509C173.648 213.908 166.026 223.132 170.43 236.596C172.347 242.454 176.172 246.761 180.667 248.109C183.581 248.981 186.454 248.459 188.755 246.645C189.379 246.154 190.279 246.255 190.776 246.876C191.267 247.498 191.165 248.397 190.543 248.894C189.114 250.027 187.521 250.781 185.837 251.146L185.836 251.141Z" fill="black"/>
<path d="M218.164 204.521C217.943 204.569 217.711 204.566 217.478 204.504C216.714 204.296 216.264 203.505 216.473 202.743C216.492 202.668 218.468 195.166 214.399 190.142C211.529 186.6 206.299 185.009 198.852 185.409C198.06 185.45 197.383 184.845 197.342 184.054C197.301 183.263 197.909 182.592 198.7 182.545C207.132 182.091 213.172 184.045 216.647 188.357C221.634 194.545 219.343 203.14 219.238 203.506C219.093 204.041 218.658 204.42 218.154 204.529L218.164 204.521Z" fill="black"/>
<path d="M203.742 183.43L203.731 183.433C202.953 183.596 202.192 183.097 202.03 182.321C200.448 174.725 204.682 165.809 206.574 162.325C206.951 161.627 207.827 161.371 208.521 161.748C209.219 162.124 209.474 162.999 209.096 163.691C207.738 166.189 203.414 174.882 204.841 181.735C205.002 182.506 204.508 183.264 203.737 183.432L203.742 183.43Z" fill="black"/>
<path d="M178.577 191.63C178.327 191.685 178.063 191.671 177.814 191.589C177.698 191.548 166.443 187.852 159.199 191.65C158.81 191.853 158.356 191.868 157.957 191.694C157.557 191.52 157.257 191.177 157.146 190.75C157.047 190.375 154.801 181.36 165.08 161.637C165.444 160.936 166.316 160.658 167.019 161.026C167.721 161.39 167.999 162.259 167.629 162.962C160.448 176.741 159.673 184.936 159.761 188.27C165.795 186.067 173.033 187.365 176.579 188.249C175.791 175.771 187.539 162.963 188.069 162.398C188.609 161.819 189.521 161.781 190.1 162.319C190.68 162.856 190.717 163.767 190.178 164.346C190.048 164.486 177.432 178.247 179.685 189.951C179.781 190.451 179.602 190.964 179.218 191.302C179.034 191.466 178.808 191.574 178.576 191.625L178.577 191.63Z" fill="black"/>
<path d="M223.397 162.651C223.357 162.66 223.323 162.667 223.284 162.676C223.139 162.695 208.861 164.601 191.491 164.79C168.056 165.043 150.437 162.223 139.132 156.404C138.424 156.042 138.147 155.178 138.516 154.47C138.879 153.764 139.746 153.487 140.454 153.854C151.184 159.371 168.808 162.161 191.437 161.916C208.636 161.729 222.771 159.849 222.91 159.831C223.694 159.726 224.419 160.273 224.525 161.062C224.627 161.81 224.13 162.499 223.404 162.656L223.397 162.651Z" fill="black"/>
<path d="M139.068 204.209C139.017 204.22 138.966 204.231 138.919 204.235C138.131 204.323 137.42 203.755 137.338 202.967C137.303 202.666 136.562 195.558 138.178 186.582C140.329 174.605 145.723 165.094 153.762 159.079C154.401 158.603 155.296 158.735 155.771 159.366C156.247 159.998 156.115 160.897 155.482 161.372C137.432 174.877 140.161 202.378 140.191 202.656C140.268 203.392 139.778 204.061 139.069 204.215L139.068 204.209Z" fill="black"/>
<path d="M154.016 157.513C147.978 158.822 143.502 158.247 143.165 158.201C142.382 158.093 141.832 157.365 141.942 156.583C142.051 155.801 142.781 155.252 143.564 155.36C143.699 155.378 156.83 157.021 168.176 147.452L166.11 137.924C165.942 137.148 166.435 136.384 167.212 136.215C167.989 136.047 168.754 136.539 168.922 137.314L171.347 148.494L170.72 149.051C165.063 154.063 159.011 156.43 154.022 157.512L154.016 157.513Z" fill="black"/>
<path d="M139.136 156.451C132.242 157.946 125.391 158.027 119.237 156.637C104.778 153.362 95.6496 142.309 93.5268 125.512L93.3629 124.208L142.637 113.523C143.414 113.355 144.179 113.846 144.348 114.621C144.516 115.397 144.022 116.161 143.246 116.33L96.5625 126.453C99.4099 145.332 110.751 151.777 119.877 153.844C136.322 157.571 158.197 149.308 166.692 136.168C167.123 135.5 168.014 135.313 168.676 135.738C169.345 136.167 169.532 137.057 169.106 137.718C164.825 144.34 157.031 150.224 147.726 153.853C144.886 154.961 142.01 155.827 139.136 156.451Z" fill="black"/>
<path d="M101.108 140.71C100.615 140.817 100.111 140.903 99.6079 140.964C98.8209 141.058 98.1067 140.502 98.0067 139.712C97.9066 138.922 98.4756 138.206 99.2626 138.113C103.034 137.656 106.443 135.637 108.61 132.573C110.687 129.64 111.4 126.114 110.623 122.639C110.455 121.864 110.937 121.102 111.712 120.928C111.712 120.928 111.718 120.927 111.724 120.926C112.495 120.758 113.259 121.244 113.431 122.013C114.389 126.29 113.507 130.628 110.957 134.226C108.612 137.537 105.076 139.844 101.107 140.704L101.108 140.71Z" fill="black"/>
<path d="M172.129 111.885C169.906 112.367 168.004 112.163 166.459 111.278C163.665 109.674 163.236 106.461 163.219 106.329C163.12 105.545 163.682 104.824 164.468 104.725C165.254 104.626 165.968 105.182 166.071 105.959C166.081 106.004 166.374 107.931 167.916 108.8C169.275 109.565 171.378 109.382 174.004 108.267C174.732 107.956 175.577 108.294 175.89 109.025C176.201 109.752 175.862 110.595 175.129 110.909C174.074 111.356 173.071 111.686 172.13 111.891L172.129 111.885Z" fill="black"/>
<path d="M200.774 121.917C193.052 123.592 188.07 119.098 186.363 116.073C185.976 115.381 186.22 114.51 186.913 114.117C187.601 113.731 188.479 113.973 188.87 114.659C189.06 114.985 193.473 122.387 203.361 118.056C204.094 117.738 204.938 118.07 205.255 118.795C205.573 119.52 205.24 120.368 204.513 120.686C203.201 121.261 201.958 121.66 200.774 121.917Z" fill="black"/>
<path d="M155.124 110.774C154.512 110.906 153.857 110.622 153.547 110.043C153.176 109.342 153.445 108.478 154.143 108.107C154.403 107.968 160.096 104.79 161.81 95.6981C161.956 94.92 162.706 94.4079 163.491 94.5517C164.27 94.6967 164.784 95.4502 164.638 96.2283C162.649 106.766 155.782 110.495 155.489 110.647C155.371 110.708 155.245 110.753 155.12 110.781L155.124 110.774Z" fill="black"/>
<path d="M162.086 99.6016C161.786 99.6667 161.464 99.6357 161.168 99.4987C151.489 94.9445 142.8 82.7116 137.922 66.761C133.282 51.6059 133.004 36.4469 137.196 27.1967L137.564 26.3763L138.467 26.3523C138.856 26.339 148.112 26.1269 158.929 29.2255C173.396 33.3631 183.618 41.5198 188.482 52.8052C188.793 53.5315 188.46 54.374 187.727 54.6927C186.995 55.0115 186.156 54.6722 185.837 53.9415C175.867 30.8249 145.138 29.3015 139.445 29.2207C131.938 47.7623 143.18 87.8601 162.385 96.9005C163.105 97.2361 163.41 98.0942 163.072 98.8073C162.872 99.2297 162.499 99.5062 162.074 99.5984L162.086 99.6016Z" fill="black"/>
<path d="M158.312 88.9328C158.04 88.9918 157.751 88.9716 157.472 88.8604C156.736 88.5636 156.377 87.7292 156.67 86.9964C160.875 76.5228 159.438 65.8984 152.394 55.3997C147.061 47.4507 140.345 42.5681 140.281 42.517C139.634 42.053 139.494 41.1592 139.953 40.5145C140.419 39.8685 141.314 39.7277 141.96 40.186C142.249 40.3959 149.108 45.3658 154.732 53.7256C162.264 64.9181 163.859 76.788 159.334 88.0596C159.149 88.5203 158.753 88.8312 158.3 88.9296L158.312 88.9328Z" fill="black"/>
<path d="M158.898 84.7064C158.427 84.8084 157.916 84.6703 157.558 84.3038C157.015 83.746 144.296 70.3135 141.906 44.0721C141.835 43.2817 142.421 42.5861 143.206 42.5106C143.998 42.4396 144.693 43.0175 144.769 43.8067C145.971 56.9585 149.947 66.7244 153.067 72.5999C156.455 78.9741 159.6 82.2791 159.63 82.3082C160.181 82.876 160.159 83.7872 159.589 84.3372C159.388 84.529 159.147 84.6523 158.898 84.7064Z" fill="black"/>
<path d="M199.07 260.184L172.746 265.893C171.969 266.061 171.204 265.57 171.036 264.794C170.868 264.019 171.361 263.255 172.137 263.086L198.461 257.378C199.238 257.209 200.003 257.701 200.172 258.476C200.34 259.251 199.847 260.016 199.07 260.184Z" fill="black"/>
<path d="M121.613 196.288C121.256 196.365 120.869 196.307 120.538 196.094C119.871 195.67 119.672 194.783 120.098 194.116C120.406 193.623 127.375 182.124 114.325 168.455C113.779 167.88 113.802 166.974 114.377 166.423C114.953 165.877 115.861 165.9 116.412 166.473C124.025 174.449 125.311 181.913 125.052 186.768C124.765 192.097 122.626 195.511 122.533 195.656C122.321 195.992 121.987 196.207 121.625 196.285L121.613 196.288Z" fill="black"/>
<path d="M152.151 160.957L108.886 170.339L108.411 169.269C108.364 169.161 103.547 158.475 96.0966 153.817C92.8166 151.667 88.9568 151.497 85.9994 153.353C83.2244 155.092 81.916 158.201 82.404 161.875C82.5085 162.658 81.9465 163.379 81.1688 163.488C80.3842 163.593 79.6587 163.039 79.5542 162.256C78.9193 157.495 80.7549 153.258 84.4694 150.924C88.3936 148.461 93.4437 148.646 97.6503 151.401C104.454 155.648 109.063 164.062 110.54 167.042L151.548 158.149C152.325 157.981 153.09 158.472 153.258 159.247C153.426 160.023 152.933 160.787 152.157 160.955L152.151 160.957Z" fill="black"/>
<path d="M95.7804 205.462C95.7463 205.469 95.7123 205.476 95.6783 205.484C94.895 205.594 94.165 205.048 94.0548 204.266L88.2085 163.099L48.5328 171.702L55.0242 188.251C55.3146 188.988 54.9488 189.82 54.2104 190.11C53.472 190.4 52.6391 190.036 52.3487 189.299L44.6245 169.612L90.6218 159.637L96.8998 203.862C97.0082 204.609 96.513 205.309 95.7816 205.467L95.7804 205.462Z" fill="black"/>
<path d="M56.4362 191.286C66.6578 188.738 83.2905 194.977 90.4064 202.279C94.2596 206.579 91.81 208.094 85.5925 209.644C72.0402 211.806 55.2961 211.569 48.8268 202.486C46.0419 196.159 48.589 193.533 56.4305 191.287M55.8288 188.485C49.2408 189.914 46.1991 193.352 45.4312 195.314C39.9651 210.101 67.4734 216.807 86.2023 212.456C113.935 204.842 69.4804 183.167 55.8288 188.485Z" fill="black"/>
<path d="M115.496 203.254L95.4366 207.604C94.6599 207.772 93.8944 207.281 93.7263 206.506C93.5582 205.73 94.0513 204.966 94.828 204.797L114.887 200.448C115.664 200.279 116.429 200.771 116.597 201.546C116.765 202.321 116.272 203.086 115.496 203.254Z" fill="black"/>
<path d="M138.39 198.289L130.237 200.057C129.46 200.226 128.695 199.734 128.527 198.959C128.359 198.184 128.852 197.419 129.629 197.251L137.781 195.483C138.558 195.314 139.324 195.806 139.492 196.581C139.66 197.356 139.167 198.121 138.39 198.289Z" fill="black"/>
<path d="M63.0707 160.754C62.4981 160.878 61.8834 160.644 61.5566 160.122C61.1331 159.456 61.3318 158.566 61.9998 158.142C64.1233 156.793 69.4549 152.527 68.6266 149.063C68.3745 148.01 63.3516 147.897 60.3582 147.835C53.1114 147.676 43.1852 147.453 41.4926 139.758C40.696 136.139 41.3788 132.608 43.529 129.274C47.6036 122.935 56.2629 118.575 62.5788 117.205C63.3555 117.037 64.1211 117.528 64.2892 118.303C64.4572 119.079 63.9641 119.843 63.1874 120.011C57.2457 121.3 49.4145 125.427 45.9485 130.823C44.2304 133.494 43.6794 136.292 44.3035 139.142C45.5131 144.638 53.4337 144.81 60.4245 144.965C66.1394 145.094 70.6546 145.193 71.4252 148.391C72.0716 151.071 70.8839 153.971 67.8973 157.006C65.8345 159.1 63.639 160.5 63.5456 160.562C63.3991 160.653 63.2408 160.717 63.082 160.751L63.0707 160.754Z" fill="black"/>
<path d="M131.195 275.235C130.826 275.315 130.427 275.253 130.087 275.025C129.427 274.582 129.257 273.688 129.697 273.036L131.459 270.432C131.904 269.773 132.798 269.597 133.452 270.042C134.112 270.485 134.282 271.378 133.842 272.031L132.08 274.634C131.864 274.954 131.541 275.16 131.195 275.235Z" fill="black"/>
<path d="M171.702 123.986C171.112 124.114 170.487 123.858 170.162 123.319C166.077 116.444 159.801 117.396 159.532 117.442C158.753 117.57 158.01 117.05 157.878 116.273C157.745 115.496 158.268 114.76 159.038 114.617C159.381 114.555 167.51 113.224 172.634 121.852C173.037 122.535 172.812 123.413 172.128 123.816C171.992 123.899 171.849 123.954 171.702 123.986Z" fill="black"/>
<path d="M173.546 88.1178C173.506 88.1264 173.466 88.135 173.427 88.1436C172.641 88.2429 171.916 87.695 171.816 86.9051C169.58 69.6411 179.52 53.9667 197.141 46.9701C212.073 41.0424 232.491 42.4264 244.44 58.8756C244.905 59.5153 244.761 60.4114 244.121 60.882C243.48 61.3468 242.577 61.2051 242.111 60.5654C231.069 45.3652 212.1 44.1231 198.201 49.643C185.778 54.5764 172.167 67.1964 174.67 86.5411C174.766 87.2845 174.274 87.9718 173.548 88.1291L173.546 88.1178Z" fill="black"/>
<path d="M206.482 94.8915C206.482 94.8915 206.443 94.9001 206.426 94.9038C191.717 97.4832 168.633 98.585 165.336 91.0714C163.284 86.4036 169.595 81.5872 171.668 80.0061C172.3 79.5255 173.198 79.6447 173.685 80.2737C174.166 80.904 174.046 81.8009 173.415 82.2872C169.229 85.4819 167.249 88.263 167.971 89.9193C169.918 94.3549 187.3 95.3428 205.932 92.0784C206.715 91.9383 207.458 92.4643 207.598 93.2456C207.733 94.0043 207.238 94.7336 206.489 94.8959L206.482 94.8915Z" fill="black"/>
<path d="M205.132 89.1535C197.614 90.7838 191.697 90.6806 191.387 90.6767C190.594 90.6591 189.964 90.0018 189.983 89.2099C190.001 88.418 190.654 87.7905 191.453 87.8068C191.543 87.811 200.443 87.9546 210 84.8869C210.755 84.6461 211.563 85.0575 211.81 85.8154C212.051 86.569 211.638 87.3753 210.878 87.623C208.909 88.2575 206.975 88.7596 205.133 89.1592L205.132 89.1535Z" fill="black"/>
<path d="M187.9 80.2657C186.744 80.5165 185.47 80.6091 184.044 80.5214C181.383 80.3519 180.24 78.9944 179.756 77.8849C176.676 70.881 191.974 51.3906 195.077 47.554C195.573 46.9371 196.478 46.8415 197.096 47.3355C197.713 47.8295 197.808 48.7331 197.313 49.35C190.065 58.3271 180.643 72.7517 182.389 76.7215C182.491 76.9481 182.754 77.5548 184.234 77.6484C189.857 78.0108 192.314 74.889 196.376 69.7192C201.8 62.8143 209.235 53.3582 229.154 47.3503C229.913 47.1266 230.717 47.5505 230.947 48.3065C231.176 49.0625 230.745 49.8668 229.987 50.0963C210.937 55.8388 203.834 64.8851 198.642 71.4909C195.311 75.7321 192.537 79.2543 187.906 80.2645L187.9 80.2657Z" fill="black"/>
<path d="M230.588 136.904C229.919 137.049 229.226 136.701 228.954 136.049C228.652 135.315 228.999 134.476 229.735 134.174C251.454 125.216 264.265 108.961 267.81 85.8636C270.019 71.4925 267.756 58.7841 266.895 54.7588C250.072 58.318 227.92 65.9653 215 82.1853C207.175 92.0101 206.474 100.355 206.469 100.439C206.408 101.229 205.724 101.821 204.929 101.769C204.138 101.709 203.543 101.02 203.598 100.233C203.624 99.8596 204.374 90.9173 212.744 80.4055C226.555 63.068 250.251 55.2044 267.684 51.6669L269.015 51.3961L269.359 52.7078C269.524 53.3354 273.388 68.2795 270.657 86.2061C268.123 102.852 259.15 125.147 230.821 136.829C230.74 136.865 230.656 136.889 230.576 136.906L230.588 136.904Z" fill="black"/>
<path d="M219.684 131.324C219.503 131.363 219.308 131.37 219.11 131.33C218.329 131.179 217.822 130.43 217.968 129.652C218.078 129.089 220.69 115.786 227.589 102.269C236.856 84.0984 249.45 74.5309 264.021 74.6C264.817 74.605 265.455 75.2486 265.45 76.0436C265.444 76.8387 264.799 77.4763 264.002 77.4713C231.392 77.3213 220.897 129.663 220.793 130.195C220.681 130.776 220.228 131.206 219.684 131.324Z" fill="black"/>
<path d="M228.781 123.67C226.354 124.196 223.798 124.59 221.117 124.846C220.326 124.923 219.625 124.346 219.549 123.557C219.473 122.768 220.051 122.067 220.842 121.991C234.32 120.691 244.357 115.867 250.672 107.649C260.695 94.6044 257.92 77.2085 257.894 77.0363C257.76 76.2537 258.299 75.5089 259.073 75.3825C259.857 75.248 260.595 75.7753 260.729 76.5578C260.858 77.3177 263.753 95.3215 252.97 109.378C247.43 116.598 239.31 121.392 228.782 123.675L228.781 123.67Z" fill="black"/>
<path d="M249.406 158.338C249.224 158.377 249.035 158.383 248.838 158.349C248.059 158.204 247.54 157.457 247.686 156.679L255.286 115.896C255.432 115.118 256.18 114.6 256.959 114.745C257.739 114.89 258.257 115.637 258.111 116.415L250.512 157.198C250.402 157.784 249.95 158.22 249.4 158.339L249.406 158.338Z" fill="black"/>
<path d="M85.2258 169.083L93.709 176.722L94.4431 169.158L92.7253 161.237L89.2919 156.353L87.024 156.845C86.186 157.524 81.697 160.749 81.2402 161.654L85.2258 169.083Z" fill="white"/>
<path d="M101.502 183.919C101.123 184.001 100.717 183.935 100.374 183.695C89.7005 176.359 80.0685 169.035 79.4275 160.056C79.3672 159.258 79.965 158.565 80.7719 158.509C81.5732 158.453 82.2664 159.05 82.3211 159.849C82.8736 167.544 91.9507 174.39 102.022 181.306C102.685 181.761 102.85 182.661 102.393 183.317C102.176 183.63 101.853 183.837 101.507 183.912L101.502 183.919Z" fill="black"/>
<path d="M161.927 118.523C169.006 108.984 135.995 85.5262 129.281 95.3235C122.202 104.862 155.218 128.319 161.927 118.523Z" fill="black"/>
<path d="M158.603 120.796C157.718 120.987 156.708 121.035 155.582 120.935C146.631 120.145 132.757 110.286 129.077 102.103C127.83 99.3348 127.87 97.0275 129.189 95.2545C130.438 93.4315 132.605 92.6415 135.632 92.9095C144.583 93.6995 158.456 103.558 162.136 111.741C163.384 114.51 163.343 116.812 162.025 118.59C161.239 119.732 160.094 120.472 158.603 120.796ZM132.665 93.2743C131.231 93.5853 130.132 94.2917 129.377 95.3854C128.11 97.094 128.081 99.3158 129.287 102.004C130.985 105.783 135.181 110.294 140.5 114.075C145.826 117.855 151.468 120.334 155.596 120.701C158.531 120.959 160.63 120.208 161.823 118.456C163.087 116.754 163.114 114.527 161.909 111.844C160.211 108.065 156.016 103.554 150.696 99.7731C145.376 95.9918 139.728 93.514 135.6 93.1474C134.498 93.0486 133.517 93.0955 132.655 93.2824L132.665 93.2743Z" fill="black"/>
<path d="M201.167 144.676C208.639 135.443 176.629 110.631 169.514 120.141C162.042 129.374 194.058 154.185 201.167 144.676Z" fill="black"/>
<path d="M198.032 146.753C197.069 146.962 195.964 146.989 194.724 146.825C185.811 145.665 172.361 135.241 169.024 126.912C167.896 124.094 168.026 121.791 169.422 120.072C170.742 118.305 172.941 117.603 175.959 117.997C184.871 119.157 198.322 129.582 201.659 137.91C202.787 140.728 202.656 143.026 201.266 144.749C200.489 145.788 199.41 146.455 198.044 146.751L198.032 146.753ZM172.699 118.295C171.384 118.581 170.353 119.219 169.607 120.216C168.268 121.869 168.151 124.092 169.242 126.824C170.781 130.666 174.783 135.35 179.942 139.349C185.101 143.349 190.64 146.058 194.751 146.594C197.671 146.974 199.799 146.305 201.07 144.608C202.403 142.956 202.528 140.737 201.43 138.001C199.89 134.159 195.888 129.475 190.729 125.476C185.57 121.476 180.032 118.767 175.92 118.231C174.705 118.074 173.629 118.094 172.694 118.297L172.699 118.295Z" fill="black"/>
</svg>
