<svg width="590" height="300" viewBox="0 0 590 300" fill="none" xmlns="http://www.w3.org/2000/svg">
<path d="M0 40C0 17.9086 17.9086 0 40 0H550C572.091 0 590 17.9086 590 40V215.843C590 231.394 577.315 244 561.765 244C546.301 244 533.687 256.536 533.687 272C533.687 287.464 521.151 300 505.687 300H40C17.9086 300 0 282.091 0 260V40Z" fill="white"/>
<path fill-rule="evenodd" clip-rule="evenodd" d="M40 0C17.9086 0 0 17.9086 0 40V260C0 282.091 17.9086 300 40 300H505.687C521.151 300 533.687 287.464 533.687 272C533.687 256.536 546.301 244 561.765 244C577.315 244 590 231.394 590 215.843V40C590 17.9086 572.091 0 550 0H40Z" fill="white"/>
</svg>
