<svg width="55" height="54" viewBox="0 0 55 54" fill="none" xmlns="http://www.w3.org/2000/svg">
<g filter="url(#filter0_i_811_2545)">
<rect x="0.666748" width="54" height="54" rx="27" fill="#251B4C"/>
<g clip-path="url(#clip0_811_2545)">
<path d="M34.4167 15H23.9167C23.2516 15.0005 22.6055 15.2217 22.0796 15.6289C21.5536 16.0361 21.1776 16.6062 21.0105 17.25H31.698C32.618 17.25 33.5003 17.6155 34.1508 18.266C34.8013 18.9165 35.1667 19.7988 35.1667 20.7188V35.0105L36.198 35.8355C36.3258 35.9378 36.4836 35.9955 36.6473 35.9997C36.811 36.004 36.9716 35.9545 37.1046 35.8589C37.2028 35.7864 37.2823 35.6915 37.3366 35.5821C37.3909 35.4727 37.4184 35.3519 37.4167 35.2298V18C37.4167 17.2044 37.1007 16.4413 36.5381 15.8787C35.9755 15.3161 35.2124 15 34.4167 15Z" fill="white"/>
<path d="M30.6668 18.75H20.9168C20.1212 18.75 19.3581 19.0661 18.7955 19.6287C18.2329 20.1913 17.9168 20.9544 17.9168 21.75V38.2322C17.915 38.3538 17.9421 38.474 17.9959 38.5831C18.0497 38.6922 18.1286 38.7868 18.2262 38.8594C18.3618 38.9578 18.5264 39.0081 18.6939 39.002C18.8614 38.996 19.022 38.9341 19.1501 38.8261L25.7918 33.2306L32.4336 38.8237C32.5609 38.931 32.7203 38.9929 32.8866 38.9996C33.0529 39.0063 33.2168 38.9574 33.3523 38.8608C33.4511 38.7884 33.5312 38.6935 33.5859 38.5839C33.6407 38.4743 33.6684 38.3533 33.6668 38.2308V21.75C33.6668 20.9544 33.3508 20.1913 32.7882 19.6287C32.2255 19.0661 31.4625 18.75 30.6668 18.75Z" fill="white"/>
</g>
</g>
<defs>
<filter id="filter0_i_811_2545" x="-0.333252" y="0" width="55" height="54" filterUnits="userSpaceOnUse" color-interpolation-filters="sRGB">
<feFlood flood-opacity="0" result="BackgroundImageFix"/>
<feBlend mode="normal" in="SourceGraphic" in2="BackgroundImageFix" result="shape"/>
<feColorMatrix in="SourceAlpha" type="matrix" values="0 0 0 0 0 0 0 0 0 0 0 0 0 0 0 0 0 0 127 0" result="hardAlpha"/>
<feOffset dx="-1"/>
<feGaussianBlur stdDeviation="0.5"/>
<feComposite in2="hardAlpha" operator="arithmetic" k2="-1" k3="1"/>
<feColorMatrix type="matrix" values="0 0 0 0 1 0 0 0 0 1 0 0 0 0 1 0 0 0 0.2 0"/>
<feBlend mode="normal" in2="shape" result="effect1_innerShadow_811_2545"/>
</filter>
<clipPath id="clip0_811_2545">
<rect width="24" height="24" fill="white" transform="translate(15.6667 15)"/>
</clipPath>
</defs>
</svg>
