<svg width="144" height="34" viewBox="0 0 144 34" fill="none" xmlns="http://www.w3.org/2000/svg">
<g id="svgviewer-output-2 1" opacity="0.8" clip-path="url(#clip0_637_4144)">
<g id="Group">
<path id="Vector" d="M6.44411 6.47883C6.44411 3.59935 8.4075 1.71661 11.898 1.71661C13.9159 1.71661 15.7702 2.15961 17.6245 3.0456C18.988 3.65472 19.7515 2.76873 20.1878 1.66124C17.57 0.553746 14.843 0 12.1161 0C6.44411 0 0.553952 1.93811 0.499413 8.69381C0.444875 17.8306 15.7157 18.9935 16.0974 26.6352C16.261 30.2899 13.6977 32.2834 10.2073 32.2834C7.75304 32.2834 5.5715 31.785 3.33542 30.5668C2.13557 29.9023 1.26295 30.6775 0.826644 31.7296C3.28088 33.1694 7.31673 33.9446 10.0437 33.9446C16.8064 33.9446 22.4239 31.1759 22.2603 24.3094C21.9331 14.8404 6.44411 13.7329 6.44411 6.47883Z" fill="white"/>
<path id="Vector_2" d="M120.594 15.1174C120.212 14.0099 119.667 12.9577 118.903 12.1271C118.14 11.2411 117.158 10.5766 115.903 10.0783C114.649 9.5799 113.231 9.3584 111.54 9.3584C108.104 9.3584 105.378 10.5213 103.469 12.7916C101.505 15.1174 100.524 18.163 100.633 21.9284C100.687 24.974 101.396 28.0196 103.305 30.4561C105.378 33.0587 108.595 34.0001 111.759 34.0001C114.867 34.0001 118.358 32.8926 120.157 31.2314C120.812 30.6222 120.485 29.7916 120.157 29.5148C118.194 31.0652 116.231 31.8405 113.613 31.8405C111.159 31.8405 109.359 30.9545 108.323 29.2933C107.286 27.5766 106.686 24.8079 106.632 21.0424H120.976C121.03 21.0424 121.085 20.9871 121.085 20.9317C121.194 20.3226 121.248 19.6581 121.248 18.9382C121.139 17.4985 120.976 16.2802 120.594 15.1174ZM115.794 19.1043L106.468 19.8242C106.577 16.4463 107.232 10.6874 111.595 10.6874C115.685 10.6874 115.849 15.948 115.794 19.1043Z" fill="white"/>
<path id="Vector_3" d="M134.065 19.8241L142.136 9.85669H139.355C139.082 9.85669 138.81 9.91206 138.646 10.1889L133.247 18.7166L131.883 16.6678C127.902 10.7981 128.229 9.85669 125.938 9.85669H121.303L129.865 22.4821L121.03 33.5016H123.866C124.193 33.5016 124.466 33.3909 124.63 33.1694L130.792 23.645L132.919 26.7459C136.737 32.2834 136.246 33.557 139.137 33.5016H143.5L134.065 19.8241Z" fill="white"/>
<path id="Vector_4" d="M59.4016 16.9447C59.4016 12.1825 57.6563 9.3584 53.1296 9.3584C49.3119 9.3584 46.7486 11.3519 44.7307 13.5669C43.9672 10.9089 42.2219 9.3584 38.786 9.3584C35.5682 9.3584 32.9504 10.9089 30.8234 13.2346V13.1792C30.8234 11.3519 30.5507 9.85677 28.8054 9.85677H25.1514L25.3695 12.5701V30.7884L25.1514 33.5017H31.0961L30.8779 30.7884V14.5082C32.5141 13.0685 34.532 12.4594 36.1681 12.4594C39.2768 12.4594 39.6041 15.7819 39.6041 18.2737V30.733L39.3859 33.4463H45.3306L45.1125 30.733V14.5082C46.5305 13.2346 48.5484 12.4594 50.4027 12.4594C53.675 12.4594 53.8932 16.1141 53.8932 18.2737V30.2346C53.8932 32.505 54.4931 33.4463 55.9656 33.4463H59.6197L59.4016 30.733V16.9447Z" fill="white"/>
<path id="Vector_5" d="M96.9785 16.9447C96.9785 12.2379 95.2333 9.3584 90.7066 9.3584C87.4888 9.3584 84.4892 10.9089 82.3622 13.2346C82.3622 11.4073 82.0895 9.91214 80.3443 9.91214H76.6902L76.9083 12.6255V30.8437L76.6902 33.5571H82.6349L82.4167 30.8437V14.5082C84.1074 13.1792 85.7436 12.4594 88.0342 12.4594C90.9247 12.4594 91.5247 15.2281 91.5247 18.2737V30.2346C91.5247 32.2281 91.961 33.4463 93.5971 33.4463H97.2512L97.0331 30.733L96.9785 16.9447Z" fill="white"/>
<path id="Vector_6" d="M67.8004 6.03583C69.4366 6.03583 70.8 4.65147 70.8 2.99023C70.8 1.32899 69.4911 0 67.8004 0C66.1642 0 64.8008 1.38436 64.8008 3.0456C64.8008 4.70684 66.1642 6.03583 67.8004 6.03583Z" fill="white"/>
<path id="Vector_7" d="M70.8 13.0684C70.8 11.2411 70.4728 9.85669 68.7276 9.85669H65.0735L65.2916 12.57V30.7883L65.0735 33.5016H71.0182L70.8 30.7883V13.0684Z" fill="white"/>
</g>
</g>
<defs>
<clipPath id="clip0_637_4144">
<rect width="143" height="34" fill="white" transform="translate(0.5)"/>
</clipPath>
</defs>
</svg>
