<svg width="191" height="46" viewBox="0 0 191 46" fill="none" xmlns="http://www.w3.org/2000/svg">
<g id="svgviewer-output-3 2" opacity="0.8" clip-path="url(#clip0_637_4163)">
<path id="Vector" fill-rule="evenodd" clip-rule="evenodd" d="M190.182 19.5735C189.684 19.9752 186.728 23.4784 183.365 26.083C181.461 27.553 177.827 29.5381 176.634 30.1208C176.117 30.3682 175.668 30.6932 175.473 30.543L184.91 15.9743H178.301C178.031 16.3545 170.084 30.8854 165.562 30.8854C164.984 30.8854 164.176 30.5532 164.176 29.9981C164.176 26.635 170.929 18.2896 172.026 15.9651L165.847 16.0019C165.511 16.6643 161.699 23.1063 159.567 23.1063C158.501 23.1063 157.495 22.6627 157.495 20.6612C157.495 18.6913 159.022 17.0956 160.711 15.1688C159.685 15.1054 158.912 14.8028 156.2 15.3323C152.862 15.9968 148.915 19.8372 146.406 21.5985C147.792 19.9507 148.882 17.9359 150.28 16.0397C149.71 15.9824 146.931 16.0397 143.778 16.0397C143.606 16.4874 134.974 31.2708 130.633 31.3321C129.738 31.3424 129.592 30.7208 129.592 30.1085C129.592 27.1093 137.58 16.5518 137.818 16.0397C136.18 15.9651 137.104 16.0295 131.519 16.0397C130.753 17.1028 122.851 30.8854 118.177 30.8854C117.576 30.8854 116.918 30.637 116.918 29.6618C116.918 26.9959 123.352 17.847 124.47 16.056C122.78 15.964 119.967 15.964 118.314 15.9743C113.375 22.8334 111.233 31.3332 102.739 31.3332C100.66 31.3332 99.6254 28.7469 99.6254 27.1093C99.6254 26.5512 99.891 25.1017 100.31 23.8863C101.514 20.3984 103.684 16.4394 106.311 16.4394C107.085 16.4394 108.579 17.2592 108.579 19.1329C108.579 21.1304 107.691 21.6629 107.728 21.9706C109.873 21.6057 113.001 21.2612 113.222 18.6617C113.272 18.1076 113.312 17.524 112.962 16.9239C112.262 15.7044 109.91 15.549 108.151 15.549C98.9064 15.549 94.9814 23.2607 93.284 23.3322C92.4464 23.3629 91.0901 22.6064 91.0901 21.1109C91.0901 19.7207 93.2347 16.7 94.0797 15.4018C88.6023 14.5299 84.1535 18.3663 79.9851 22.6903C81.7381 20.4209 82.6409 18.5472 84.312 15.9681H77.8384C75.1532 21.3931 69.279 31.1768 62.5061 31.3352C59.5438 31.4006 58.6641 30.4714 58.6641 27.4426C58.6641 26.8844 58.9371 25.9123 59.2236 25.1487C60.0718 25.0526 71.7311 22.6392 71.7311 18.7782C71.7311 16.5007 68.9892 15.776 66.6557 15.776C50.8364 15.776 57.9776 31.1062 39.3387 31.7768C38.7614 31.7973 38.0087 31.7911 37.6119 31.6746C42.5204 29.9675 47.3471 25.3532 49.6544 20.8268C51.3444 17.5209 55.6483 1.55582 62.0443 1.55582C62.6216 1.55582 65.0412 1.99844 65.6217 1.99844C66.1991 1.99844 67.5196 1.76333 67.5763 1.21951C67.6655 0.4692 66.7449 -0.0511111 61.6905 0.445689C47.6882 1.79911 40.3003 18.5002 30.4171 27.5693C31.1477 25.9788 33.919 22.0514 35.7655 18.3315C37.5783 14.6924 39.4395 9.41058 39.8174 8.74102C41.3164 6.10267 43.4064 1.85022 47.5003 0.613333C47.5213 0.330178 47.2232 0 47.2232 0C43.6856 1.05596 40.484 1.93609 37.0535 4.74516C31.9466 8.924 28.1907 13.5291 25.4803 16.7358C20.2946 22.8743 16.143 31.9976 7.75779 31.9976C6.97785 31.9976 4.70099 31.6909 4.39343 30.2905C4.30945 29.9123 4.39343 29.302 4.39343 29.302C5.32768 29.439 6.5611 28.106 6.48972 26.5522C6.44773 25.6629 5.22376 23.9967 3.72265 23.9967C2.05359 23.9967 0.5 25.1927 0.5 27.3312C0.5 30.8067 3.98718 32.8839 7.06392 32.8839C15.8795 32.8839 19.8915 24.8083 25.2871 18.307C26.5279 16.2165 37.8985 2.66084 41.6418 2.66084C42.2213 2.66084 42.0229 2.62609 42.2213 2.75285C34.679 6.45022 30.1494 14.4348 27.7624 21.8561C26.8428 24.7408 23.7766 31.5795 23.7997 31.8576V32.6426C29.1428 31.2115 33.2241 26.1668 37.5794 20.8053C44.9296 11.7586 53.1195 2.0148 58.2443 1.77151C58.8174 1.74596 58.6264 1.74289 58.8216 1.86658C40.7212 12.4813 41.6765 31.7737 35.8809 31.7737C35.3067 31.7737 34.7756 31.3342 34.0303 31.2729C32.9008 31.1809 31.5141 30.9999 31.1887 31.8637C30.8139 32.8859 33.6135 32.8685 35.1902 32.6661C35.8463 32.5823 36.2567 32.2215 36.8341 32.2215H40.9259C44.474 32.2215 50.2496 29.9133 53.256 26.2343C53.5247 30.2792 56.255 32.7019 59.1701 32.6661C64.15 32.6068 64.7494 32.0395 70.8903 28.196C70.0694 29.7211 69.8636 29.9797 68.7614 31.9639C72.0744 31.9986 73.017 31.9782 74.4299 31.9915C77.4531 27.5836 80.6947 21.5648 85.2526 18.8723C85.2526 18.8723 84.9503 20.4904 85.2463 21.4524C85.9076 23.599 87.8727 24.3759 90.1737 24.6642C91.8113 24.8717 94.3264 23.873 94.3264 23.873C93.8698 24.9228 93.4583 25.9021 93.6336 27.2197C93.7123 27.8484 93.833 28.2011 94.0902 28.7776C95.2817 31.4313 98.793 32.4433 100.777 32.4433C104.266 32.4433 109.19 30.8507 111.68 27.7676C111.124 29.7538 113.144 32.4433 115.648 32.4433C118.701 32.4433 123.059 28.0927 124.817 26.8763C124.754 27.6675 124.523 28.2236 124.523 28.7776C124.523 30.5828 126.423 32.4433 128.559 32.4433C130.579 32.4433 135.393 29.0107 136.618 28.2236C136.773 28.4096 136.742 28.5507 136.742 28.5507C136.068 29.6087 135.297 30.9478 134.844 31.9475C136.518 31.9802 137.024 31.9966 140.539 31.9802C141.736 30.1668 148.572 19.0021 151.504 18.446C152.069 18.3376 151.768 18.4153 151.966 18.5748C151.743 18.95 151.504 19.5561 151.504 20.1132C151.504 22.2241 154.023 24.2185 156.689 24.4454C158.757 24.6253 158.99 24.2205 160.143 23.781C160.442 23.6634 160.746 23.3639 160.941 23.5152C160.384 24.2512 159.34 27.5305 159.34 28.336C159.34 30.726 160.261 32.0017 163.025 32.0017C166.025 32.0017 169.785 29.7324 171.454 27.3352C171.588 27.5244 171.559 27.6572 171.559 27.6572C168.609 31.6296 161.964 45.5564 153.457 45.5564C149.626 45.5564 148.736 42.8986 148.736 40.0037C148.736 37.1005 149.36 34.7801 154.483 35.051C154.036 34.4295 151.733 34.223 150.924 34.223C148.413 34.223 142.81 37.1159 143.204 41.0289C143.607 45.0994 150.636 46.0041 152.767 46.0041C161.7 46.0041 168.066 41.3223 174.928 31.6787C175.306 31.1451 180.561 28.7796 183.792 26.2476C186.771 23.9128 189.464 20.9218 190.366 19.8362C190.303 19.6461 190.366 19.8945 190.184 19.5786M60.4781 21.3266C61.1446 19.6502 62.4967 17.6487 64.3306 17.068C64.3306 17.068 65.607 16.6868 66.2274 17.068C67.0021 17.5383 67.3506 18.2477 66.8908 19.227C65.4422 22.2988 60.2177 24.3585 59.3402 24.6264C59.3402 24.6264 59.589 23.5602 60.4791 21.3276" fill="white"/>
</g>
<defs>
<clipPath id="clip0_637_4163">
<rect width="190" height="46" fill="white" transform="translate(0.5)"/>
</clipPath>
</defs>
</svg>
