<svg width="135" height="38" viewBox="0 0 135 38" fill="none" xmlns="http://www.w3.org/2000/svg">
<g id="logo-2 1" opacity="0.8" clip-path="url(#clip0_637_4153)">
<g id="Group">
<path id="Vector" d="M94.2624 14.869C95.1819 14.869 95.9273 14.1173 95.9273 13.1902C95.9273 12.263 95.1819 11.5115 94.2624 11.5115C93.3428 11.5115 92.5974 12.263 92.5974 13.1902C92.5974 14.1173 93.3428 14.869 94.2624 14.869Z" fill="white"/>
<path id="Vector_2" d="M132.06 18.7831C129.492 18.7265 124.468 22.795 123.875 23.4208L126.5 18.8971H122.548C117.468 27.5746 106.854 36.0249 102.141 36.1955C97.8778 36.5079 97.5679 33.4359 98.9791 29.7946V29.8225C105.02 30.4482 115.633 24.1892 112.302 19.5515C109.451 16.6779 101.774 19.6942 96.8904 26.2657L96.552 26.7783L95.8184 27.8592C94.0965 30.1924 90.5396 33.549 90.5396 33.549C85.9669 38.0727 83.9067 35.4271 85.8262 32.1557L93.362 18.9824H89.9751C89.0438 20.2625 84.4711 28.7129 77.0476 34.005C72.8417 37.2477 69.5679 35.8544 72.5033 31.6431L79.8699 18.9824L83.9628 18.9545L84.4987 18.3853H80.2937L84.7533 10.532H81.0274C79.0509 13.9182 74.4229 21.7994 69.7932 23.7906C70.6122 22.681 70.3291 21.2016 70.3291 21.2016C69.9908 19.4949 68.0997 19.3244 68.0997 19.3244C68.0997 19.3244 65.4181 18.9258 62.3695 21.6567L64.0069 18.9258H60.2532C56.9786 24.7862 48.2853 37.2477 43.5425 36.0528C42.2729 35.4836 42.1883 33.8623 43.5149 31.6718L51.0231 18.8692H47.2962C46.7887 19.6376 45.2645 22.5679 45.2929 22.5104C45.4336 21.742 45.6313 18.7831 42.7528 18.186C42.1029 18.0433 41.6515 18.0155 41.0309 18.0155C37.8408 17.9868 34.624 19.6655 31.4616 22.4826C29.2322 24.4738 27.115 27.1194 25.337 30.4204C17.6873 37.5044 9.84071 37.9021 7.27207 35.2565C4.56192 32.4394 3.48992 26.6643 8.51408 16.9337C10.2921 14.4021 16.8975 3.42008 26.4098 0.887589C33.5227 -1.01832 36.4012 3.0215 36.6558 7.71577C36.6558 7.71577 38.8006 3.64808 41.2285 1.11559C39.7319 1.74132 36.4581 2.50892 34.9339 1.57074C30.3327 -1.38819 21.4694 -0.933033 10.123 9.70782C0.384468 19.6655 -6.53077 39.0117 12.7762 37.5044C19.6068 36.6507 25.337 31.1592 25.337 31.1592C24.4333 34.488 25.9014 36.9918 28.7238 37.5044C29.7682 37.7028 31.2363 37.4183 32.4783 36.9352C33.5227 36.508 35.7245 35.5976 38.603 33.321C37.7001 36.9631 43.2888 42.3971 53.5917 29.5666L48.8213 37.2764L53.1679 37.2477C53.1679 37.2477 60.4224 24.3311 61.749 23.0222C64.5713 19.2391 69.7655 18.5272 69.6801 21.1728C69.1156 20.8891 68.6081 20.8038 68.1843 20.8891C66.9423 21.0876 66.3778 22.6532 66.6324 23.734C66.7731 24.1039 66.9708 24.4738 67.5637 24.7584C67.5637 24.7584 69.9908 26.465 75.834 19.0964L74.9873 20.6045C74.9873 20.6045 69.088 30.8468 68.3259 32.2976C65.3335 38.0736 72.4187 38.614 76.6523 34.9432C76.6523 34.9432 80.0961 32.3828 84.0198 28.0584C83.9666 28.1501 83.9193 28.2452 83.8782 28.343C81.8456 32.013 79.6153 35.7682 82.4955 37.3904C83.3138 37.7603 85.5439 38.0161 88.3102 36.0528C88.3102 36.0528 92.7406 32.3828 95.0839 29.3952C94.0956 31.7005 93.1928 35.4836 97.2011 37.1911C99.459 37.9021 101.294 37.447 103.552 36.6785C110.637 34.3462 119.697 23.8768 119.697 23.8768C119.697 23.8768 112.02 36.736 111.766 37.219L115.66 37.1911C115.66 37.1911 121.194 27.7452 122.323 26.1525C125.343 21.373 131.891 18.1008 132.569 19.7508C130.142 19.2669 129.549 22.8803 131.468 23.62C134.46 24.7862 136.182 19.0111 132.06 18.7831ZM108.543 19.0533C109.589 19.1673 110.096 19.7077 109.984 21.1872C109.645 24.375 105.016 29.5827 99.088 29.4121C101.149 24.5168 106.06 18.8253 108.543 19.0533ZM37.3333 33.5667C36.2044 34.5345 34.8208 35.3029 34.8208 35.3029C29.1484 38.1774 27.8779 35.0471 28.4985 32.1447C29.0345 29.6401 31.2372 25.9684 33.0428 23.7205C34.6801 21.8712 36.4012 20.4475 38.6038 19.3666C43.3173 17.0325 46.1957 19.9636 44.2486 24.1191C42.9504 26.8509 40.8617 30.5217 37.3333 33.5667Z" fill="white"/>
</g>
</g>
<defs>
<clipPath id="clip0_637_4153">
<rect width="134" height="38" fill="white" transform="translate(0.5)"/>
</clipPath>
</defs>
</svg>
