<svg width="114" height="50" viewBox="0 0 114 50" fill="none" xmlns="http://www.w3.org/2000/svg">
<path d="M114 25C114 38.8071 88.4802 50 57 50C25.5198 50 0 38.8071 0 25C0 11.1929 25.5198 0 57 0C88.4802 0 114 11.1929 114 25Z" fill="white"/>
<path fill-rule="evenodd" clip-rule="evenodd" d="M109 34C111.73 31.1689 113 28.0413 113 25C113 21.9587 111.73 18.8311 109 16C106.264 13.1628 102.063 10.2206 97 8C86.8776 3.56034 72.6089 1 57 1C41.3911 1 27.1224 3.56034 17 8C11.937 10.2206 7.73612 13.1628 5 16C2.26979 18.8311 1 21.9587 1 25C1 28.0413 2.26979 31.1689 5 34C7.73612 36.8372 11.937 39.7794 17 42C27.1224 46.4397 41.3911 49 57 49C72.6089 49 86.8776 46.4397 97 42C102.063 39.7794 106.264 36.8372 109 34ZM57 50C88.4802 50 114 38.8071 114 25C114 11.1929 88.4802 0 57 0C25.5198 0 0 11.1929 0 25C0 38.8071 25.5198 50 57 50Z" fill="#EC5532"/>
<path d="M81 33V12H88V33H81Z" fill="#EC5532"/>
<path d="M69 33C65.026 33 62 29.14 62 25C62 20.89 65.026 18 69 18H72C75.916 18 79.087 20.95 79 25V27H70C70.4931 28.44 71.3176 29 73 29H79V33H69ZM70 24H75C75 22.59 73.5084 21 72 21C70.4916 21 70 22.59 70 24Z" fill="#EC5532"/>
<path d="M45 33L49 26L45 18H51L53 21C53.5246 22.08 54.5046 22.02 55 21L57 18H61L58 26L61 33H57L55 30C54.5046 28.98 53.5246 28.92 53 30L51 33H45Z" fill="#EC5532"/>
<path d="M40 20C37.7921 20 36 18.3234 36 16C36 13.6766 37.8208 12 40 12C42.2366 12 44 13.6766 44 16C44 18.3234 42.2366 20 40 20ZM37 33V22H43V33H37Z" fill="#EC5532"/>
<path d="M34 12V33H24C20.0525 33 17 30.11 17 26C17 21.86 20.0525 18 24 18H27V12H34ZM24 22C22.2424 22 21 24.14 21 26C21 27.83 22.2424 29 24 29C25.7864 29 28 27.83 28 26C28 24.14 25.7864 22 24 22Z" fill="#EC5532"/>
<path d="M87 41V40H85V39L87 37H88V39H89V40H88V41H87ZM87 39C87 39.2857 87.3021 39 87 39C87 38.7143 87.3021 38 87 38C86.6979 38 86 38.7143 86 39C86 39.2857 86.6979 39 87 39Z" fill="#EC5532"/>
<path d="M82 41V40L83 39C83.4745 38.6514 83.4627 38 83 38H82V37H84C85.1982 37 85.0025 38.3029 84 39L83 40H85V41H82Z" fill="#EC5532"/>
<path d="M81 41C80.172 41 79 40.7611 79 40V38C79 37.2389 80.172 37 81 37C81.822 37 82 37.2389 82 38V40C82 40.7611 81.822 41 81 41ZM81 40C81.366 40 81 39.3389 81 39C81 38.6556 81.366 38 81 38C80.628 38 80 38.6556 80 39C80 39.3389 80.628 40 81 40Z" fill="#EC5532"/>
<path d="M75 41V40L76 39C76.4745 38.6514 76.4627 38 76 38H75V37H77C78.1982 37 78.0025 38.3029 77 39L76 40H78V41H75Z" fill="#EC5532"/>
<path d="M72 41C71.3807 41 71 40.7683 71 40V37H72V38H73V39H72V40C72 40.3683 72.7056 40 73 40V41H72Z" fill="#EC5532"/>
<path d="M68 41V40H69C69.2009 40 69.2196 40.084 69 40H68C67.2434 39.718 68.1734 38 69 38H70V39H69C68.7759 38.922 68.7992 39 69 39C69.7987 39.27 69.8407 41 69 41H68Z" fill="#EC5532"/>
<path d="M65 41C64.2987 41 64 39.828 64 39C64 38.178 64.2987 38 65 38H66C66.6911 38 67.0154 38.19 67 39V40H65C65.087 40.288 65.7031 40 66 40H67V41H65ZM65 39H66C66 38.718 66.2662 39 66 39C65.7338 39 65 38.718 65 39Z" fill="#EC5532"/>
</svg>
