<svg width="36" height="36" viewBox="0 0 36 36" fill="none" xmlns="http://www.w3.org/2000/svg">
<path d="M27.3894 28.1875C30.5729 25.2162 31.9878 20.2641 31.1389 15.5242H18.4756V20.7593H25.6916C25.4086 22.4572 24.4181 23.8721 23.0033 24.7917L27.3894 28.1875Z" fill="#4285F4"/>
<path d="M6.44922 24.0136C7.37987 25.8469 8.71454 27.445 10.3526 28.6874C11.9907 29.9298 13.8895 30.7842 15.9058 31.1861C17.9221 31.588 20.0033 31.527 21.9926 31.0075C23.9818 30.4881 25.8272 29.5239 27.3897 28.1876L23.0035 24.7918C19.254 27.2679 13.0285 26.3482 10.9061 20.5471L6.44922 24.0136Z" fill="#34A853"/>
<path d="M10.9062 20.5469C10.3402 18.7783 10.3402 17.1511 10.9062 15.3825L6.44924 11.916C4.82211 15.1703 4.3269 19.7687 6.44924 24.0134L10.9062 20.5469Z" fill="#FBBC02"/>
<path d="M10.9061 15.3826C12.4625 10.5012 19.1125 7.6714 23.5695 11.8453L27.4604 8.02512C21.9423 2.71926 11.1891 2.9315 6.44922 11.9161L10.9061 15.3826Z" fill="#EA4335"/>
</svg>
