<svg width="24" height="24" viewBox="0 0 24 24" fill="none" xmlns="http://www.w3.org/2000/svg">
<path d="M17.5958 7.64436C16.9004 7.64572 16.335 7.08268 16.3337 6.3873C16.3323 5.69192 16.8953 5.1265 17.591 5.12514C18.2867 5.12378 18.8522 5.68715 18.8535 6.38253C18.8545 7.07791 18.2915 7.643 17.5958 7.64436Z" fill="white"/>
<path fill-rule="evenodd" clip-rule="evenodd" d="M12.01 17.3909C9.03295 17.3967 6.61446 14.988 6.60869 12.0102C6.6029 9.03307 9.01219 6.61421 11.9893 6.60843C14.9671 6.60264 17.3859 9.01266 17.3917 11.9895C17.3975 14.9673 14.9875 17.3851 12.01 17.3909ZM11.993 8.50031C10.0607 8.50371 8.49645 10.0738 8.49985 12.0065C8.50359 13.9395 10.074 15.5034 12.0063 15.4997C13.9393 15.4959 15.5036 13.9262 15.4998 11.9932C15.4961 10.0601 13.9257 8.49657 11.993 8.50031Z" fill="white"/>
<path fill-rule="evenodd" clip-rule="evenodd" d="M5.1043 2.06567C5.7711 1.80439 6.53417 1.62544 7.65138 1.57271C8.77134 1.51896 9.12888 1.50671 11.9798 1.50127C14.8313 1.49583 15.1889 1.50671 16.3088 1.55638C17.4264 1.60469 18.1898 1.78092 18.8579 2.03948C19.5492 2.30585 20.1357 2.66443 20.7202 3.24652C21.3047 3.82929 21.6646 4.41377 21.9344 5.10404C22.1953 5.77153 22.3743 6.53393 22.4273 7.65184C22.4804 8.77145 22.4933 9.12866 22.4988 11.9799C22.5042 14.8308 22.4926 15.1887 22.4437 16.3094C22.395 17.4263 22.2191 18.19 21.9606 18.8579C21.6935 19.5491 21.3356 20.1357 20.7535 20.7201C20.1714 21.3049 19.5863 21.6645 18.896 21.9347C18.2286 22.1953 17.4662 22.3742 16.349 22.4276C15.229 22.4807 14.8715 22.4933 12.0196 22.4987C9.16902 22.5042 8.81148 22.4933 7.69154 22.4439C6.57397 22.395 5.81022 22.2191 5.14241 21.9609C4.45113 21.6935 3.86462 21.3359 3.28015 20.7535C2.69535 20.171 2.33509 19.5862 2.06565 18.896C1.80438 18.2288 1.62609 17.4661 1.57269 16.3492C1.51928 15.2289 1.5067 14.871 1.50126 12.0201C1.4958 9.16881 1.50703 8.8116 1.55601 7.69164C1.60535 6.57373 1.78056 5.8103 2.03911 5.1418C2.30616 4.45084 2.66405 3.86467 3.24682 3.27986C3.8289 2.69539 4.41404 2.33477 5.1043 2.06567ZM5.82384 20.1969C6.19432 20.3394 6.7502 20.5095 7.77387 20.5541C8.88156 20.6021 9.21325 20.6126 12.0162 20.6072C14.8201 20.6021 15.1518 20.5902 16.2591 20.5381C17.2818 20.4895 17.8377 20.3173 18.2071 20.1731C18.6974 19.9815 19.0464 19.7526 19.4131 19.3855C19.7799 19.0171 20.0068 18.667 20.1966 18.1768C20.3395 17.8059 20.5093 17.2497 20.5538 16.226C20.6025 15.119 20.6127 14.787 20.6072 11.9833C20.6022 9.18037 20.5902 8.84834 20.5375 7.74097C20.4892 6.71797 20.3174 6.16207 20.1728 5.79295C19.9813 5.30204 19.753 4.95367 19.3849 4.58659C19.0168 4.2195 18.6667 3.99327 18.1758 3.80344C17.806 3.66021 17.2495 3.49078 16.2265 3.44622C15.1188 3.39757 14.7867 3.3877 11.9832 3.39315C9.18025 3.39859 8.84856 3.40981 7.74121 3.46221C6.71789 3.51085 6.16267 3.68266 5.79253 3.82725C5.30264 4.01878 4.95359 4.24638 4.58652 4.61483C4.22012 4.98326 3.99321 5.33265 3.80338 5.82391C3.66119 6.19406 3.49005 6.75063 3.44618 7.77363C3.39786 8.88133 3.38766 9.21338 3.3931 12.0163C3.39821 14.82 3.41011 15.152 3.46217 16.2587C3.51013 17.2824 3.68328 17.8376 3.8272 18.2081C4.01873 18.6976 4.24701 19.0467 4.61477 19.4137C4.98321 19.7795 5.33327 20.0071 5.82384 20.1969Z" fill="white"/>
</svg>
