<svg width="11" height="9" viewBox="0 0 11 9" fill="none" xmlns="http://www.w3.org/2000/svg">
<path fill-rule="evenodd" clip-rule="evenodd" d="M5.59669 2.25179C7.15351 2.25185 8.65079 2.82903 9.77908 3.86404C9.86404 3.94394 9.99985 3.94294 10.0835 3.86178L10.8957 3.07091C10.9381 3.02974 10.9617 2.97398 10.9613 2.91597C10.961 2.85796 10.9367 2.80247 10.8938 2.76179C7.93243 0.0234147 3.26048 0.0234147 0.299083 2.76179C0.256186 2.80244 0.231846 2.85791 0.23145 2.91592C0.231055 2.97394 0.254636 3.02971 0.296976 3.07091L1.10938 3.86178C1.19301 3.94306 1.32891 3.94407 1.41383 3.86404C2.54226 2.82897 4.03972 2.25178 5.59669 2.25179ZM5.59459 4.89349C6.44421 4.89343 7.26351 5.21376 7.89329 5.79222C7.97847 5.87432 8.11266 5.87254 8.19569 5.78821L9.00147 4.96238C9.0439 4.91907 9.06745 4.8603 9.06684 4.79924C9.06623 4.73818 9.04151 4.67991 8.99821 4.63748C7.0804 2.82794 4.11041 2.82794 2.19259 4.63748C2.14927 4.67991 2.12455 4.73821 2.12398 4.79929C2.12342 4.86037 2.14704 4.91913 2.18957 4.96238L2.99511 5.78821C3.07815 5.87254 3.21233 5.87432 3.29751 5.79222C3.92688 5.21414 4.74553 4.89384 5.59459 4.89349ZM7.17476 6.64212C7.17597 6.70807 7.15277 6.77164 7.11064 6.81784L5.74815 8.35439C5.70821 8.39955 5.65376 8.42496 5.59694 8.42496C5.54012 8.42496 5.48567 8.39955 5.44573 8.35439L4.08301 6.81784C4.04091 6.77161 4.01775 6.70801 4.019 6.64207C4.02025 6.57612 4.04579 6.51368 4.0896 6.46947C4.95974 5.64704 6.23414 5.64704 7.10427 6.46947C7.14805 6.51371 7.17356 6.57618 7.17476 6.64212Z" fill="white"/>
</svg>
